<?xml version="1.0" standalone="no"?>
<!DOCTYPE svg PUBLIC "-//W3C//DTD SVG 1.1//EN" "http://www.w3.org/Graphics/SVG/1.1/DTD/svg11.dtd" >
<svg>
<metadata>
Created by FontForge 20120731 at Sun Apr 24 16:43:21 2016
 By ,,,
Copyright (c) 2014 by Jason Smith, Fontsmith Ltd. All rights reserved.
</metadata>
<defs>
<font id="FSAlbertArabic-Regular" horiz-adv-x="0" >
  <font-face 
    font-family="FS Albert Arabic"
    font-weight="400"
    font-stretch="normal"
    units-per-em="1000"
    panose-1="2 11 5 3 4 5 2 2 8 4"
    ascent="800"
    descent="-200"
    bbox="-134 -502.222 1308 1038.31"
    underline-thickness="50"
    underline-position="-50"
    unicode-range="U+060C-FEFC"
  />
<missing-glyph horiz-adv-x="535" 
d="M20 0v693h495v-693h-495zM268 391l168 253h-337zM297 347l169 -253v505zM99 50h337l-168 252zM70 599v-505l168 253z" />
    <glyph glyph-name="uniFEF5" unicode="&#xfedf;&#xfe82;" horiz-adv-x="630" arabic-form="isolated" 
d="M374 81h38q41 0 54 14.5t13 57.5v530q0 18 14 21l44 7q19 3 19 -17v-579q0 -115 -132 -115h-354q-20 0 -20 20v42q0 19 20 19h223l-121 435q-4 20 14 24l36 12q20 5 24 -14zM240 645q-27 0 -66 18q-43 20 -64 20q-22 0 -39 -21q-8 -8 -13 -1l-14 16q-6 8 0 15
q29 41 68 41q31 0 67 -19q42 -19 60 -19q22 0 39 21q8 8 13 1l14 -16q6 -8 0 -15q-29 -41 -65 -41z" />
    <glyph glyph-name="uniFEF6" unicode="&#xfee0;&#xfe82;" horiz-adv-x="665" arabic-form="final" 
d="M374 81h38q41 0 54 14.5t13 57.5v530q0 18 14 21l44 7q19 3 19 -17v-574q36 -39 99 -39h10v-81h-10q-72 0 -112 54q-29 -54 -119 -54h-354q-20 0 -20 20v42q0 19 20 19h223l-121 435q-4 20 14 24l36 12q20 5 24 -14zM240 645q-27 0 -66 18q-43 20 -64 20q-22 0 -39 -21
q-8 -8 -13 -1l-14 16q-6 8 0 15q29 41 68 41q31 0 67 -19q42 -19 60 -19q22 0 39 21q8 8 13 1l14 -16q6 -8 0 -15q-29 -41 -65 -41z" />
    <glyph glyph-name="uniFEF7" unicode="&#xfedf;&#xfe84;" horiz-adv-x="630" arabic-form="isolated" 
d="M374 81h38q41 0 54 14.5t13 57.5v530q0 18 14 21l44 7q19 3 19 -17v-579q0 -115 -132 -115h-354q-20 0 -20 20v42q0 19 20 19h223l-121 435q-4 20 14 24l36 12q20 5 24 -14zM82 687h37q-19 28 -19 61q0 37 26 59t64 22q39 0 70 -18q9 -6 5 -14l-6 -20q-5 -9 -13 -4
q-24 12 -51 12q-20 0 -33.5 -12.5t-13.5 -33.5q0 -26 19 -52h101q9 0 9 -10v-23q0 -11 -9 -11h-186q-9 0 -9 11v23q0 10 9 10z" />
    <glyph glyph-name="uniFEF8" unicode="&#xfee0;&#xfe84;" horiz-adv-x="665" arabic-form="final" 
d="M374 81h38q41 0 54 14.5t13 57.5v530q0 18 14 21l44 7q19 3 19 -17v-574q36 -39 99 -39h10v-81h-10q-72 0 -112 54q-29 -54 -119 -54h-354q-20 0 -20 20v42q0 19 20 19h223l-121 435q-4 20 14 24l36 12q20 5 24 -14zM82 687h37q-19 28 -19 61q0 37 26 59t64 22
q39 0 70 -18q9 -6 5 -14l-6 -20q-5 -9 -13 -4q-24 12 -51 12q-20 0 -33.5 -12.5t-13.5 -33.5q0 -26 19 -52h101q9 0 9 -10v-23q0 -11 -9 -11h-186q-9 0 -9 11v23q0 10 9 10z" />
    <glyph glyph-name="uniFEF9" unicode="&#xfedf;&#xfe88;" horiz-adv-x="630" arabic-form="isolated" 
d="M374 81h38q41 0 54 14.5t13 57.5v530q0 18 14 21l44 7q19 3 19 -17v-579q0 -115 -132 -115h-354q-20 0 -20 20v42q0 19 20 19h223l-152 546q-5 18 14 24l36 12q19 6 24 -14zM82 -252h37q-19 29 -19 61q0 37 26 59t64 22q39 0 70 -18q9 -6 5 -14l-6 -20q-5 -9 -13 -4
q-24 12 -51 12q-20 0 -33.5 -12.5t-13.5 -33.5q0 -26 19 -52h101q9 0 9 -10v-23q0 -11 -9 -11h-186q-9 0 -9 11v23q0 10 9 10z" />
    <glyph glyph-name="uniFEFA" unicode="&#xfee0;&#xfe88;" horiz-adv-x="665" arabic-form="final" 
d="M374 81h38q41 0 54 14.5t13 57.5v530q0 18 14 21l44 7q19 3 19 -17v-574q36 -39 99 -39h10v-81h-10q-72 0 -112 54q-29 -54 -119 -54h-354q-20 0 -20 20v42q0 19 20 19h223l-152 546q-5 18 14 24l36 12q19 6 24 -14zM82 -252h37q-19 29 -19 61q0 37 26 59t64 22
q39 0 70 -18q9 -6 5 -14l-6 -20q-5 -9 -13 -4q-24 12 -51 12q-20 0 -33.5 -12.5t-13.5 -33.5q0 -26 19 -52h101q9 0 9 -10v-23q0 -11 -9 -11h-186q-9 0 -9 11v23q0 10 9 10z" />
    <glyph glyph-name="uniFEFB" unicode="&#xfedf;&#xfe8e;" horiz-adv-x="630" arabic-form="isolated" 
d="M374 81h38q41 0 54 14.5t13 57.5v530q0 18 14 21l44 7q19 3 19 -17v-579q0 -115 -132 -115h-354q-20 0 -20 20v42q0 19 20 19h223l-152 546q-5 18 14 24l36 12q19 6 24 -14z" />
    <glyph glyph-name="uniFEFC" unicode="&#xfee0;&#xfe8e;" horiz-adv-x="665" arabic-form="final" 
d="M374 81h38q41 0 54 14.5t13 57.5v530q0 18 14 21l44 7q19 3 19 -17v-574q36 -39 99 -39h10v-81h-10q-72 0 -112 54q-29 -54 -119 -54h-354q-20 0 -20 20v42q0 19 20 19h223l-152 546q-5 18 14 24l36 12q19 6 24 -14z" />
    <glyph glyph-name="uni06440671" unicode="&#xfedf;&#xfb51;" horiz-adv-x="630" 
d="M374 81h38q41 0 54 14.5t13 57.5v530q0 18 14 21l44 7q19 3 19 -17v-579q0 -115 -132 -115h-354q-20 0 -20 20v42q0 19 20 19h223l-121 435q-4 20 14 24l36 12q20 5 24 -14zM139 791v-32q39 32 75 32q70 0 70 -76q0 -41 -16.5 -56.5t-62.5 -15.5h-126q-10 0 -10 10v19
q0 9 10 9h20v104q0 9 7 10l23 4q10 1 10 -8zM139 681h72q19 0 26 7t7 27q0 38 -38 38q-30 0 -67 -39v-33z" />
    <glyph glyph-name="uni06440671.fina" unicode="&#xfee0;&#xfb51;" horiz-adv-x="665" 
d="M374 81h38q41 0 54 14.5t13 57.5v530q0 18 14 21l44 7q19 3 19 -17v-574q36 -39 99 -39h10v-81h-10q-72 0 -112 54q-29 -54 -119 -54h-354q-20 0 -20 20v42q0 19 20 19h223l-121 435q-4 20 14 24l36 12q20 5 24 -14zM139 791v-32q39 32 75 32q70 0 70 -76
q0 -41 -16.5 -56.5t-62.5 -15.5h-126q-10 0 -10 10v19q0 9 10 9h20v104q0 9 7 10l23 4q10 1 10 -8zM139 681h72q19 0 26 7t7 27q0 38 -38 38q-30 0 -67 -39v-33z" />
    <glyph glyph-name="uni06A1.init" unicode="&#x6a1;" horiz-adv-x="497" 
d="M-10 81h126q-41 55 -41 133q0 91 49.5 141.5t133.5 50.5q86 0 134.5 -52t48.5 -148q0 -102 -53 -154t-151 -52h-247q-30 0 -30 40q0 41 30 41zM154 203q0 -73 41 -122h54q52 0 82.5 30t30.5 92q0 124 -104 124t-104 -124z" />
    <glyph glyph-name="uni06A1.medi" unicode="&#x6a1;" horiz-adv-x="495" 
d="M-10 81h70q56 0 95 7q-47 37 -73 84t-26 92q0 68 52 115t140 47t140 -47t52 -115q0 -45 -26 -92t-73 -84q39 -7 95 -7h59v-81h-59q-102 0 -188 35q-86 -35 -188 -35h-70q-30 0 -30 40q0 41 30 41zM361 259q0 38 -30 62.5t-83 24.5t-83 -24.5t-30 -62.5q0 -35 28 -75.5
t85 -67.5q57 27 85 67.5t28 75.5z" />
    <glyph glyph-name="uni06A1.fina" unicode="&#x6a1;" horiz-adv-x="997" 
d="M863 259q0 38 -30 62.5t-83 24.5t-83 -24.5t-30 -62.5q0 -35 28 -75.5t85 -67.5q57 27 85 67.5t28 75.5zM942 264q0 -45 -26 -92t-73 -84q39 -7 95 -7h59v-81h-59q-102 0 -188 35q-86 -35 -188 -35h-280q-113 0 -172.5 54.5t-59.5 152.5v115q0 20 20 20h38q19 0 19 -20
v-65q0 -98 38 -137t140 -39h257q56 0 95 7q-47 37 -73 84t-26 92q0 68 52 115t140 47t140 -47t52 -115z" />
    <glyph glyph-name="uni06C2.fina" unicode="&#x6c2;" horiz-adv-x="501" 
d="M127 75v-108q0 -21 -19 -21h-39q-19 0 -19 21v109q0 77 39 112.5t89 35.5q38 0 69 -15.5t79 -59.5q39 -36 74.5 -52t83.5 -16h17v-81h-17q-57 0 -100.5 19t-100.5 70q-35 31 -55.5 42.5t-44.5 11.5q-56 0 -56 -68zM86 378h37q-19 28 -19 61q0 37 26 59t64 22q39 0 70 -18
q9 -6 5 -14l-6 -20q-5 -9 -13 -4q-24 12 -51 12q-20 0 -33.5 -12.5t-13.5 -33.5q0 -26 19 -52h101q9 0 9 -10v-23q0 -11 -9 -11h-186q-9 0 -9 11v23q0 10 9 10z" />
    <glyph glyph-name="uni06C3.fina" unicode="&#x6c3;" horiz-adv-x="495" 
d="M319 420v34q0 18 14 21l44 7q19 3 19 -17v-301q0 -45 20.5 -64t73.5 -19h5v-81h-18q-120 0 -150 75q-53 -25 -118 -25q-66 0 -112.5 31.5t-46.5 96.5q0 73 67.5 135.5t201.5 106.5zM319 150v196q-86 -28 -137 -70.5t-51 -88.5q0 -25 21.5 -40.5t64.5 -15.5q45 0 102 19z
M399 591q-21 0 -35 12.5t-14 33.5q0 20 14 33t35 13t35 -13t14 -33q0 -21 -14 -33.5t-35 -12.5zM269 591q-21 0 -35 12.5t-14 33.5q0 20 14 33t35 13t35 -13t14 -33q0 -21 -14 -33.5t-35 -12.5z" />
    <glyph glyph-name="uni06D5.fina" unicode="&#x6d5;" horiz-adv-x="495" 
d="M319 420v34q0 18 14 21l44 7q19 3 19 -17v-301q0 -45 20.5 -64t73.5 -19h5v-81h-18q-120 0 -150 75q-53 -25 -118 -25q-66 0 -112.5 31.5t-46.5 96.5q0 73 67.5 135.5t201.5 106.5zM319 150v196q-86 -28 -137 -70.5t-51 -88.5q0 -25 21.5 -40.5t64.5 -15.5q45 0 102 19z
" />
    <glyph glyph-name="uniFB50" unicode="&#x671;" horiz-adv-x="225" arabic-form="isolated" 
d="M74 21v662q0 18 14 21l44 7q19 3 19 -17v-673q0 -21 -19 -21h-39q-19 0 -19 21zM76 948v-32q39 32 75 32q70 0 70 -76q0 -41 -16.5 -56.5t-62.5 -15.5h-126q-10 0 -10 10v19q0 9 10 9h20v104q0 9 7 10l23 4q10 1 10 -8zM76 838h72q19 0 26 7t7 27q0 38 -38 38
q-29 0 -67 -39v-33z" />
    <glyph glyph-name="uniFB51" unicode="&#x671;" horiz-adv-x="249" arabic-form="final" 
d="M151 694v-538q0 -45 13.5 -60t56.5 -15h28v-81h-44q-131 0 -131 114v569q0 18 14 21l44 7q19 3 19 -17zM76 948v-32q39 32 75 32q70 0 70 -76q0 -41 -16.5 -56.5t-62.5 -15.5h-126q-10 0 -10 10v19q0 9 10 9h20v104q0 9 7 10l23 4q10 1 10 -8zM76 838h72q19 0 26 7t7 27
q0 38 -38 38q-29 0 -67 -39v-33z" />
    <glyph glyph-name="uniFB56" unicode="&#x67e;" horiz-adv-x="896" arabic-form="isolated" 
d="M305 81h373q41 0 54 14.5t13 57.5v233q0 20 19 20h38q20 0 20 -20v-271q0 -115 -132 -115h-408q-113 0 -172.5 54.5t-59.5 152.5v115q0 20 20 20h38q19 0 19 -20v-65q0 -98 38 -137t140 -39zM507 -212q-21 0 -35 12.5t-14 33.5q0 20 14 33t35 13t35 -13t14 -33
q0 -21 -14 -33.5t-35 -12.5zM377 -212q-21 0 -35 12.5t-14 33.5q0 20 14 33t35 13t35 -13t14 -33q0 -21 -14 -33.5t-35 -12.5zM442 -326q-21 0 -35 12.5t-14 33.5q0 20 14 33t35 13t35 -13t14 -33q0 -21 -14 -33.5t-35 -12.5z" />
    <glyph glyph-name="uniFB57" unicode="&#x67e;" horiz-adv-x="931" arabic-form="final" 
d="M305 81h373q41 0 54 14.5t13 57.5v233q0 20 19 20h38q20 0 20 -20v-266q36 -39 99 -39h10v-81h-10q-72 0 -112 54q-29 -54 -119 -54h-408q-113 0 -172.5 54.5t-59.5 152.5v115q0 20 20 20h38q19 0 19 -20v-65q0 -98 38 -137t140 -39zM497 -212q-21 0 -35 12.5t-14 33.5
q0 20 14 33t35 13t35 -13t14 -33q0 -21 -14 -33.5t-35 -12.5zM367 -212q-21 0 -35 12.5t-14 33.5q0 20 14 33t35 13t35 -13t14 -33q0 -21 -14 -33.5t-35 -12.5zM432 -326q-21 0 -35 12.5t-14 33.5q0 20 14 33t35 13t35 -13t14 -33q0 -21 -14 -33.5t-35 -12.5z" />
    <glyph glyph-name="uniFB58" unicode="&#x67e;" horiz-adv-x="276" arabic-form="initial" 
d="M-10 81h68q41 0 54 14.5t13 57.5v233q0 20 19 20h38q20 0 20 -20v-271q0 -115 -132 -115h-80q-30 0 -30 40q0 41 30 41zM123 -212q-21 0 -35 12.5t-14 33.5q0 20 14 33t35 13t35 -13t14 -33q0 -21 -14 -33.5t-35 -12.5zM-7 -212q-21 0 -35 12.5t-14 33.5q0 20 14 33
t35 13t35 -13t14 -33q0 -21 -14 -33.5t-35 -12.5zM58 -326q-21 0 -35 12.5t-14 33.5q0 20 14 33t35 13t35 -13t14 -33q0 -21 -14 -33.5t-35 -12.5z" />
    <glyph glyph-name="uniFB59" unicode="&#x67e;" horiz-adv-x="321" arabic-form="medial" 
d="M-10 81h78q41 0 54 14.5t13 57.5v233q0 20 19 20h38q20 0 20 -20v-266q36 -39 99 -39h10v-81h-10q-72 0 -112 54q-29 -54 -119 -54h-90q-30 0 -30 40q0 41 30 41zM133 -212q-21 0 -35 12.5t-14 33.5q0 20 14 33t35 13t35 -13t14 -33q0 -21 -14 -33.5t-35 -12.5zM3 -212
q-21 0 -35 12.5t-14 33.5q0 20 14 33t35 13t35 -13t14 -33q0 -21 -14 -33.5t-35 -12.5zM68 -326q-21 0 -35 12.5t-14 33.5q0 20 14 33t35 13t35 -13t14 -33q0 -21 -14 -33.5t-35 -12.5z" />
    <glyph glyph-name="uniFB66" unicode="&#x679;" horiz-adv-x="896" arabic-form="isolated" 
d="M305 81h373q41 0 54 14.5t13 57.5v233q0 20 19 20h38q20 0 20 -20v-271q0 -115 -132 -115h-408q-113 0 -172.5 54.5t-59.5 152.5v115q0 20 20 20h38q19 0 19 -20v-65q0 -98 38 -137t140 -39zM399 752v-113q39 32 75 32q70 0 70 -76q0 -41 -16.5 -56.5t-62.5 -15.5h-126
q-10 0 -10 10v19q0 9 10 9h20v184q0 9 7 10l23 5q10 1 10 -8zM399 561h72q19 0 26 7t7 27q0 38 -38 38q-30 0 -67 -39v-33z" />
    <glyph glyph-name="uniFB67" unicode="&#x679;" horiz-adv-x="931" arabic-form="final" 
d="M305 81h373q41 0 54 14.5t13 57.5v233q0 20 19 20h38q20 0 20 -20v-266q36 -39 99 -39h10v-81h-10q-72 0 -112 54q-29 -54 -119 -54h-408q-113 0 -172.5 54.5t-59.5 152.5v115q0 20 20 20h38q19 0 19 -20v-65q0 -98 38 -137t140 -39zM407 752v-113q39 32 75 32
q70 0 70 -76q0 -41 -16.5 -56.5t-62.5 -15.5h-126q-10 0 -10 10v19q0 9 10 9h20v184q0 9 7 10l23 5q10 1 10 -8zM407 561h72q19 0 26 7t7 27q0 38 -38 38q-30 0 -67 -39v-33z" />
    <glyph glyph-name="uniFB68" unicode="&#x679;" horiz-adv-x="276" arabic-form="initial" 
d="M-10 81h68q41 0 54 14.5t13 57.5v233q0 20 19 20h38q20 0 20 -20v-271q0 -115 -132 -115h-80q-30 0 -30 40q0 41 30 41zM126 752v-113q39 32 75 32q70 0 70 -76q0 -41 -16.5 -56.5t-62.5 -15.5h-126q-10 0 -10 10v19q0 9 10 9h20v184q0 9 7 10l23 5q10 1 10 -8zM126 561
h72q19 0 26 7t7 27q0 38 -38 38q-29 0 -67 -39v-33z" />
    <glyph glyph-name="uniFB69" unicode="&#x679;" horiz-adv-x="321" arabic-form="medial" 
d="M-10 81h78q41 0 54 14.5t13 57.5v233q0 20 19 20h38q20 0 20 -20v-266q36 -39 99 -39h10v-81h-10q-72 0 -112 54q-29 -54 -119 -54h-90q-30 0 -30 40q0 41 30 41zM137 752v-113q39 32 75 32q70 0 70 -76q0 -41 -16.5 -56.5t-62.5 -15.5h-126q-10 0 -10 10v19q0 9 10 9h20
v184q0 9 7 10l23 5q10 1 10 -8zM137 561h72q19 0 26 7t7 27q0 38 -38 38q-30 0 -67 -39v-33z" />
    <glyph glyph-name="uniFB6A" unicode="&#x6a4;" horiz-adv-x="998" arabic-form="isolated" 
d="M576 214q0 91 49.5 141.5t133.5 50.5q86 0 134.5 -52t48.5 -148q0 -102 -53 -154t-151 -52h-456q-113 0 -172.5 54.5t-59.5 152.5v115q0 20 20 20h38q19 0 19 -20v-65q0 -98 38 -137t140 -39h312q-41 55 -41 133zM655 203q0 -73 41 -122h54q52 0 82.5 30t30.5 92
q0 124 -104 124t-104 -124zM825 516q-21 0 -35 12.5t-14 33.5q0 20 14 33t35 13t35 -13t14 -33q0 -21 -14 -33.5t-35 -12.5zM695 516q-21 0 -35 12.5t-14 33.5q0 20 14 33t35 13t35 -13t14 -33q0 -21 -14 -33.5t-35 -12.5zM760 630q-21 0 -35 12.5t-14 33.5q0 20 14 33
t35 13t35 -13t14 -33q0 -21 -14 -33.5t-35 -12.5z" />
    <glyph glyph-name="uniFB6B" unicode="&#x6a4;" horiz-adv-x="997" arabic-form="final" 
d="M863 259q0 38 -30 62.5t-83 24.5t-83 -24.5t-30 -62.5q0 -35 28 -75.5t85 -67.5q57 27 85 67.5t28 75.5zM942 264q0 -45 -26 -92t-73 -84q39 -7 95 -7h59v-81h-59q-102 0 -188 35q-86 -35 -188 -35h-280q-113 0 -172.5 54.5t-59.5 152.5v115q0 20 20 20h38q19 0 19 -20
v-65q0 -98 38 -137t140 -39h257q56 0 95 7q-47 37 -73 84t-26 92q0 68 52 115t140 47t140 -47t52 -115zM815 534q-21 0 -35 12.5t-14 33.5q0 20 14 33t35 13t35 -13t14 -33q0 -21 -14 -33.5t-35 -12.5zM685 534q-21 0 -35 12.5t-14 33.5q0 20 14 33t35 13t35 -13t14 -33
q0 -21 -14 -33.5t-35 -12.5zM750 648q-21 0 -35 12.5t-14 33.5q0 20 14 33t35 13t35 -13t14 -33q0 -21 -14 -33.5t-35 -12.5z" />
    <glyph glyph-name="uniFB6C" unicode="&#x6a4;" horiz-adv-x="497" arabic-form="initial" 
d="M-10 81h126q-41 55 -41 133q0 91 49.5 141.5t133.5 50.5q86 0 134.5 -52t48.5 -148q0 -102 -53 -154t-151 -52h-247q-30 0 -30 40q0 41 30 41zM154 203q0 -73 41 -122h54q52 0 82.5 30t30.5 92q0 124 -104 124t-104 -124zM317 516q-21 0 -35 12.5t-14 33.5q0 20 14 33
t35 13t35 -13t14 -33q0 -21 -14 -33.5t-35 -12.5zM187 516q-21 0 -35 12.5t-14 33.5q0 20 14 33t35 13t35 -13t14 -33q0 -21 -14 -33.5t-35 -12.5zM252 630q-21 0 -35 12.5t-14 33.5q0 20 14 33t35 13t35 -13t14 -33q0 -21 -14 -33.5t-35 -12.5z" />
    <glyph glyph-name="uniFB6D" unicode="&#x6a4;" horiz-adv-x="495" arabic-form="medial" 
d="M-10 81h70q56 0 95 7q-47 37 -73 84t-26 92q0 68 52 115t140 47t140 -47t52 -115q0 -45 -26 -92t-73 -84q39 -7 95 -7h59v-81h-59q-102 0 -188 35q-86 -35 -188 -35h-70q-30 0 -30 40q0 41 30 41zM361 259q0 38 -30 62.5t-83 24.5t-83 -24.5t-30 -62.5q0 -35 28 -75.5
t85 -67.5q57 27 85 67.5t28 75.5zM306 534q-21 0 -35 12.5t-14 33.5q0 20 14 33t35 13t35 -13t14 -33q0 -21 -14 -33.5t-35 -12.5zM176 534q-21 0 -35 12.5t-14 33.5q0 20 14 33t35 13t35 -13t14 -33q0 -21 -14 -33.5t-35 -12.5zM241 648q-21 0 -35 12.5t-14 33.5
q0 20 14 33t35 13t35 -13t14 -33q0 -21 -14 -33.5t-35 -12.5z" />
    <glyph glyph-name="uniFB7A" unicode="&#x686;" horiz-adv-x="568" arabic-form="isolated" 
d="M306 -234v-27q0 -15 -3 -19.5t-13 -6.5q-16 -3 -33 -3q-98 0 -157.5 51t-59.5 138q0 93 60.5 137.5t185.5 44.5h151q-22 22 -33.5 48.5t-23.5 79.5q-16 76 -47 105.5t-90 29.5q-53 0 -116 -35q-15 -9 -22 7l-18 40q-5 11 8 20q69 48 154 48q92 0 141 -53.5t69 -152.5
q17 -82 51 -113q18 -17 18 -34v-51q0 -20 -20 -20h-222q-86 0 -126.5 -22.5t-40.5 -78.5q0 -51 41 -81.5t115 -30.5h8q23 0 23 -21zM274 -81q0 18 12.5 29.5t30.5 11.5t30.5 -11.5t12.5 -29.5t-12.5 -29.5t-30.5 -11.5t-30.5 11.5t-12.5 29.5zM386 -81q0 18 12.5 29.5
t30.5 11.5t30.5 -11.5t12.5 -29.5t-12.5 -29.5t-30.5 -11.5t-30.5 11.5t-12.5 29.5zM330 -176q0 18 12.5 29.5t30.5 11.5t30.5 -11.5t12.5 -29.5t-12.5 -29.5t-30.5 -11.5t-30.5 11.5t-12.5 29.5z" />
    <glyph glyph-name="uniFB7B" unicode="&#x686;" horiz-adv-x="587" arabic-form="final" 
d="M119 -101q0 -51 41 -81.5t115 -30.5h8q23 0 23 -21v-27q0 -15 -3 -19.5t-13 -6.5q-16 -3 -33 -3q-98 0 -157.5 51t-59.5 138q0 93 60.5 137.5t185.5 44.5h151q-22 22 -33.5 48.5t-23.5 79.5q-16 76 -47 105.5t-90 29.5q-53 0 -116 -35q-15 -9 -22 7l-18 40q-5 11 8 20
q69 48 154 48q92 0 141.5 -53.5t68.5 -152.5q10 -52 27 -82t53 -55h48v-81h-301q-86 0 -126.5 -22.5t-40.5 -78.5zM386 -81q0 18 12.5 29.5t30.5 11.5t30.5 -11.5t12.5 -29.5t-12.5 -29.5t-30.5 -11.5t-30.5 11.5t-12.5 29.5zM330 -176q0 18 12.5 29.5t30.5 11.5t30.5 -11.5
t12.5 -29.5t-12.5 -29.5t-30.5 -11.5t-30.5 11.5t-12.5 29.5zM274 -81q0 18 12.5 29.5t30.5 11.5t30.5 -11.5t12.5 -29.5t-12.5 -29.5t-30.5 -11.5t-30.5 11.5t-12.5 29.5z" />
    <glyph glyph-name="uniFB7C" unicode="&#x686;" horiz-adv-x="537" arabic-form="initial" 
d="M-10 81h416q-22 22 -33.5 48.5t-23.5 79.5q-16 76 -47 105.5t-90 29.5q-53 0 -116 -35q-15 -9 -22 7l-18 40q-6 11 8 20q69 48 154 48q92 0 141 -53.5t69 -152.5q17 -82 51 -113q18 -17 18 -34v-51q0 -20 -20 -20h-487q-30 0 -30 40q0 41 30 41zM298 -212q-21 0 -35 12.5
t-14 33.5q0 20 14 33t35 13t35 -13t14 -33q0 -21 -14 -33.5t-35 -12.5zM168 -212q-21 0 -35 12.5t-14 33.5q0 20 14 33t35 13t35 -13t14 -33q0 -21 -14 -33.5t-35 -12.5zM233 -326q-21 0 -35 12.5t-14 33.5q0 20 14 33t35 13t35 -13t14 -33q0 -21 -14 -33.5t-35 -12.5z" />
    <glyph glyph-name="uniFB7D" unicode="&#x686;" horiz-adv-x="556" arabic-form="medial" 
d="M-10 81h416q-22 22 -33.5 48.5t-23.5 79.5q-16 76 -47 105.5t-90 29.5q-53 0 -116 -35q-15 -9 -22 7l-18 40q-6 11 8 20q69 48 154 48q92 0 141.5 -53.5t68.5 -152.5q10 -52 27 -82t53 -55h48v-81h-566q-30 0 -30 40q0 41 30 41zM298 -212q-21 0 -35 12.5t-14 33.5
q0 20 14 33t35 13t35 -13t14 -33q0 -21 -14 -33.5t-35 -12.5zM168 -212q-21 0 -35 12.5t-14 33.5q0 20 14 33t35 13t35 -13t14 -33q0 -21 -14 -33.5t-35 -12.5zM233 -326q-21 0 -35 12.5t-14 33.5q0 20 14 33t35 13t35 -13t14 -33q0 -21 -14 -33.5t-35 -12.5z" />
    <glyph glyph-name="uniFB88" unicode="&#x688;" horiz-adv-x="537" arabic-form="isolated" 
d="M339 0h-279q-20 0 -20 20v42q0 19 20 19h263q44 0 57.5 14.5t13.5 57.5v46q0 79 -35.5 111.5t-125.5 32.5q-40 0 -94 -6q-8 -1 -14 -1q-20 0 -20 17v37q0 14 15 19q52 15 117 15q117 0 175.5 -49t58.5 -167v-93q0 -115 -132 -115zM207 752v-113q39 32 75 32q70 0 70 -76
q0 -41 -16.5 -56.5t-62.5 -15.5h-126q-10 0 -10 10v19q0 9 10 9h20v184q0 9 7 10l23 5q10 1 10 -8zM207 561h72q19 0 26 7t7 27q0 38 -38 38q-29 0 -67 -39v-33z" />
    <glyph glyph-name="uniFB89" unicode="&#x688;" horiz-adv-x="580" arabic-form="final" 
d="M580 0h-520q-20 0 -20 20v42q0 19 20 19h334v118q0 79 -35.5 111.5t-125.5 32.5q-40 0 -94 -6q-8 -1 -14 -1q-20 0 -20 17v37q0 14 15 19q52 15 117 15q117 0 175.5 -49t58.5 -167v-127h109v-81zM209 752v-113q39 32 75 32q70 0 70 -76q0 -41 -16.5 -56.5t-62.5 -15.5
h-126q-10 0 -10 10v19q0 9 10 9h20v184q0 9 7 10l23 5q10 1 10 -8zM209 561h72q19 0 26 7t7 27q0 38 -38 38q-30 0 -67 -39v-33z" />
    <glyph glyph-name="uniFB8A" unicode="&#x698;" horiz-adv-x="314" arabic-form="isolated" 
d="M163 121v265q0 20 19 20h38q20 0 20 -20v-279q0 -129 -40 -196.5t-149 -127.5q-16 -9 -24 8l-18 34q-7 13 12 24q56 32 84.5 62.5t43 80t14.5 129.5zM261 526q-21 0 -35 12.5t-14 33.5q0 20 14 33t35 13t35 -13t14 -33q0 -21 -14 -33.5t-35 -12.5zM131 526
q-21 0 -35 12.5t-14 33.5q0 20 14 33t35 13t35 -13t14 -33q0 -21 -14 -33.5t-35 -12.5zM196 640q-21 0 -35 12.5t-14 33.5q0 20 14 33t35 13t35 -13t14 -33q0 -21 -14 -33.5t-35 -12.5z" />
    <glyph glyph-name="uniFB8B" unicode="&#x698;" horiz-adv-x="332" arabic-form="final" 
d="M332 81v-81h-101q-13 -73 -54 -121.5t-126 -95.5q-16 -9 -24 8l-18 34q-7 13 12 24q56 32 84.5 62.5t43 80t14.5 129.5v265q0 20 19 20h38q20 0 20 -20v-305h92zM261 526q-21 0 -35 12.5t-14 33.5q0 20 14 33t35 13t35 -13t14 -33q0 -21 -14 -33.5t-35 -12.5zM131 526
q-21 0 -35 12.5t-14 33.5q0 20 14 33t35 13t35 -13t14 -33q0 -21 -14 -33.5t-35 -12.5zM196 640q-21 0 -35 12.5t-14 33.5q0 20 14 33t35 13t35 -13t14 -33q0 -21 -14 -33.5t-35 -12.5z" />
    <glyph glyph-name="uniFB8C" unicode="&#x691;" horiz-adv-x="314" arabic-form="isolated" 
d="M163 121v265q0 20 19 20h38q20 0 20 -20v-279q0 -129 -40 -196.5t-149 -127.5q-16 -9 -24 8l-18 34q-7 13 12 24q56 32 84.5 62.5t43 80t14.5 129.5zM166 752v-113q39 32 75 32q70 0 70 -76q0 -41 -16.5 -56.5t-62.5 -15.5h-126q-10 0 -10 10v19q0 9 10 9h20v184
q0 9 7 10l23 5q10 1 10 -8zM166 561h72q19 0 26 7t7 27q0 38 -38 38q-29 0 -67 -39v-33z" />
    <glyph glyph-name="uniFB8D" unicode="&#x691;" horiz-adv-x="332" arabic-form="final" 
d="M332 81v-81h-101q-13 -73 -54 -121.5t-126 -95.5q-16 -9 -24 8l-18 34q-7 13 12 24q56 32 84.5 62.5t43 80t14.5 129.5v265q0 20 19 20h38q20 0 20 -20v-305h92zM166 752v-113q39 32 75 32q70 0 70 -76q0 -41 -16.5 -56.5t-62.5 -15.5h-126q-10 0 -10 10v19q0 9 10 9h20
v184q0 9 7 10l23 5q10 1 10 -8zM166 561h72q19 0 26 7t7 27q0 38 -38 38q-29 0 -67 -39v-33z" />
    <glyph glyph-name="uniFB8E" unicode="&#x6a9;" horiz-adv-x="922" arabic-form="isolated" 
d="M305 81h370q108 0 108 70q0 53 -79.5 109.5t-230.5 101.5q-18 5 -18 18v41q0 11 12 22l294 262q14 13 24 2l28 -32q11 -13 0 -24l-266 -237q159 -57 237 -123.5t78 -151.5q0 -139 -193 -139h-387q-113 0 -172.5 54.5t-59.5 152.5v115q0 20 20 20h38q19 0 19 -20v-65
q0 -98 38 -137t140 -39z" />
    <glyph glyph-name="uniFB8F" unicode="&#x6a9;" horiz-adv-x="971" arabic-form="final" 
d="M971 0h-20q-74 0 -115 57q-45 -57 -167 -57h-387q-113 0 -172.5 54.5t-59.5 152.5v115q0 20 20 20h38q19 0 19 -20v-65q0 -98 38 -137t140 -39h370q108 0 108 70q0 53 -79.5 109.5t-230.5 101.5q-18 5 -18 18v41q0 11 12 22l294 262q14 13 24 2l28 -32q11 -13 0 -24
l-266 -237q159 -57 237 -123.5t78 -151.5q0 -9 -2 -27q34 -31 91 -31h20v-81z" />
    <glyph glyph-name="uniFB90" unicode="&#x6a9;" horiz-adv-x="442" arabic-form="initial" 
d="M-10 81h205q108 0 108 70q0 53 -79.5 109.5t-230.5 101.5q-18 5 -18 18v41q0 11 12 22l294 262q14 13 24 2l28 -32q11 -13 0 -24l-266 -237q159 -57 237 -123.5t78 -151.5q0 -139 -193 -139h-199q-30 0 -30 40q0 41 30 41z" />
    <glyph glyph-name="uniFB91" unicode="&#x6a9;" horiz-adv-x="491" arabic-form="medial" 
d="M-10 81h205q108 0 108 70q0 53 -79.5 109.5t-230.5 101.5q-18 5 -18 18v41q0 11 12 22l294 262q14 13 24 2l28 -32q11 -13 0 -24l-266 -237q159 -57 237 -123.5t78 -151.5q0 -9 -2 -27q34 -31 91 -31h20v-81h-20q-74 0 -115 57q-45 -57 -167 -57h-199q-30 0 -30 40
q0 41 30 41z" />
    <glyph glyph-name="uniFB92" unicode="&#x6af;" horiz-adv-x="922" arabic-form="isolated" 
d="M305 81h370q108 0 108 70q0 53 -79.5 109.5t-230.5 101.5q-18 5 -18 18v41q0 11 12 22l294 262q14 13 24 2l28 -32q11 -13 0 -24l-266 -237q159 -57 237 -123.5t78 -151.5q0 -139 -193 -139h-387q-113 0 -172.5 54.5t-59.5 152.5v115q0 20 20 20h38q19 0 19 -20v-65
q0 -98 38 -137t140 -39zM437 574l214 191q15 13 23 4l21 -25q10 -12 -2 -23l-214 -191q-15 -13 -23 -4l-21 25q-10 12 2 23z" />
    <glyph glyph-name="uniFB93" unicode="&#x6af;" horiz-adv-x="971" arabic-form="final" 
d="M971 0h-20q-74 0 -115 57q-45 -57 -167 -57h-387q-113 0 -172.5 54.5t-59.5 152.5v115q0 20 20 20h38q19 0 19 -20v-65q0 -98 38 -137t140 -39h370q108 0 108 70q0 53 -79.5 109.5t-230.5 101.5q-18 5 -18 18v41q0 11 12 22l294 262q14 13 24 2l28 -32q11 -13 0 -24
l-266 -237q159 -57 237 -123.5t78 -151.5q0 -9 -2 -27q34 -31 91 -31h20v-81zM437 574l214 191q15 13 23 4l21 -25q10 -12 -2 -23l-214 -191q-15 -13 -23 -4l-21 25q-10 12 2 23z" />
    <glyph glyph-name="uniFB94" unicode="&#x6af;" horiz-adv-x="442" arabic-form="initial" 
d="M-10 81h205q108 0 108 70q0 53 -79.5 109.5t-230.5 101.5q-18 5 -18 18v41q0 11 12 22l294 262q14 13 24 2l28 -32q11 -13 0 -24l-266 -237q159 -57 237 -123.5t78 -151.5q0 -139 -193 -139h-199q-30 0 -30 40q0 41 30 41zM-43 574l214 191q15 13 23 4l21 -25
q10 -12 -2 -23l-214 -191q-15 -13 -23 -4l-21 25q-10 12 2 23z" />
    <glyph glyph-name="uniFB95" unicode="&#x6af;" horiz-adv-x="491" arabic-form="medial" 
d="M-10 81h205q108 0 108 70q0 53 -79.5 109.5t-230.5 101.5q-18 5 -18 18v41q0 11 12 22l294 262q14 13 24 2l28 -32q11 -13 0 -24l-266 -237q159 -57 237 -123.5t78 -151.5q0 -9 -2 -27q34 -31 91 -31h20v-81h-20q-74 0 -115 57q-45 -57 -167 -57h-199q-30 0 -30 40
q0 41 30 41zM-43 574l214 191q15 13 23 4l21 -25q10 -12 -2 -23l-214 -191q-15 -13 -23 -4l-21 25q-10 12 2 23z" />
    <glyph glyph-name="uniFB9E" unicode="&#x6ba;" horiz-adv-x="661" arabic-form="isolated" 
d="M514 43v253q0 20 19 20h38q20 0 20 -20v-259q0 -128 -69.5 -192.5t-199.5 -64.5q-128 0 -197 65t-69 186q0 85 36 157q10 20 26 13l35 -14q17 -7 9 -26q-27 -64 -27 -131q0 -81 47 -125t141 -44q97 0 144 44.5t47 137.5z" />
    <glyph glyph-name="uniFB9F" unicode="&#x6ba;" horiz-adv-x="673" arabic-form="final" 
d="M514 43v253q0 20 19 20h38q20 0 20 -20v-215h82v-81h-84q-10 -110 -78.5 -165t-188.5 -55q-128 0 -197 65t-69 186q0 85 36 157q10 20 26 13l35 -14q17 -7 9 -26q-27 -64 -27 -131q0 -81 47 -125t141 -44q97 0 144 44.5t47 137.5z" />
    <glyph glyph-name="uniFBA4" unicode="&#x6c0;" horiz-adv-x="496" arabic-form="isolated" 
d="M248 -6q-88 0 -140 53.5t-52 148.5q0 91 51 159.5t141 68.5t141 -68.5t51 -159.5q0 -95 -52 -148.5t-140 -53.5zM248 75q56 0 84.5 34t28.5 86q0 57 -29 102.5t-84 45.5t-84 -45.5t-29 -102.5q0 -52 28.5 -86t84.5 -34zM155 567h37q-19 28 -19 61q0 37 26 59t64 22
q39 0 70 -18q9 -6 5 -14l-6 -20q-5 -9 -13 -4q-24 12 -51 12q-20 0 -33.5 -12.5t-13.5 -33.5q0 -26 19 -52h101q9 0 9 -10v-23q0 -11 -9 -11h-186q-9 0 -9 11v23q0 10 9 10z" />
    <glyph glyph-name="uniFBA5" unicode="&#x6c0;" horiz-adv-x="495" arabic-form="final" 
d="M319 420v34q0 18 14 21l44 7q19 3 19 -17v-301q0 -45 20.5 -64t73.5 -19h5v-81h-18q-120 0 -150 75q-53 -25 -118 -25q-66 0 -112.5 31.5t-46.5 96.5q0 73 67.5 135.5t201.5 106.5zM319 150v196q-86 -28 -137 -70.5t-51 -88.5q0 -25 21.5 -40.5t64.5 -15.5q45 0 102 19z
M243 632h37q-19 28 -19 61q0 37 26 59t64 22q39 0 70 -18q9 -6 5 -14l-6 -20q-5 -9 -13 -4q-24 12 -51 12q-20 0 -33.5 -12.5t-13.5 -33.5q0 -26 19 -52h101q9 0 9 -10v-23q0 -11 -9 -11h-186q-9 0 -9 11v23q0 10 9 10z" />
    <glyph glyph-name="uniFBA6" unicode="&#x6c1;" horiz-adv-x="496" arabic-form="isolated" 
d="M248 -6q-88 0 -140 53.5t-52 148.5q0 91 51 159.5t141 68.5t141 -68.5t51 -159.5q0 -95 -52 -148.5t-140 -53.5zM248 75q56 0 84.5 34t28.5 86q0 57 -29 102.5t-84 45.5t-84 -45.5t-29 -102.5q0 -52 28.5 -86t84.5 -34z" />
    <glyph glyph-name="uniFBA7" unicode="&#x6c1;" horiz-adv-x="501" arabic-form="final" 
d="M127 75v-108q0 -21 -19 -21h-39q-19 0 -19 21v109q0 77 39 112.5t89 35.5q38 0 69 -15.5t79 -59.5q39 -36 74.5 -52t83.5 -16h17v-81h-17q-57 0 -100.5 19t-100.5 70q-35 31 -55.5 42.5t-44.5 11.5q-56 0 -56 -68z" />
    <glyph glyph-name="uniFBA8" unicode="&#x6c1;" horiz-adv-x="276" arabic-form="initial" 
d="M62 -180q0 30 17 67.5t34 57.5q7 8 21 8h26q14 0 8 -10q-37 -72 -37 -101q0 -42 53 -42q7 0 7 -4q0 -15 -18 -31.5t-48 -16.5q-26 0 -44.5 18t-18.5 54zM-10 81h68q41 0 54 14.5t13 57.5v233q0 20 19 20h38q20 0 20 -20v-271q0 -115 -132 -115h-80q-30 0 -30 40
q0 41 30 41z" />
    <glyph glyph-name="uniFBA9" unicode="&#x6c1;" horiz-adv-x="525" arabic-form="medial" 
d="M-10 81h32q60 0 95 35v206q0 20 19 20h38q20 0 20 -20v-180q0 -98 26.5 -169t88.5 -141q-12 45 -12 85q0 76 47.5 120t151.5 44h29v-81h-26q-68 0 -97.5 -20t-29.5 -77t29 -154q4 -13 -7 -19l-37 -17q-12 -5 -20 1q-81 61 -141 146.5t-75 178.5q-37 -39 -99 -39h-32
q-30 0 -30 40q0 41 30 41z" />
    <glyph glyph-name="uniFBAA" unicode="&#x6be;" horiz-adv-x="759" arabic-form="isolated" 
d="M468 270q0 33 -35 58t-78 25q-36 0 -61 -22t-25 -56q0 -68 97 -133q49 27 75.5 61t26.5 67zM555 76q65 0 65 47q0 29 -25.5 70.5t-63.5 72.5v-1q1 -5 1 -10q0 -39 -23.5 -80.5t-64.5 -73.5q61 -25 111 -25zM221 436l20 39q7 14 21 10q183 -52 310 -158t127 -218
q0 -56 -34.5 -84t-92.5 -30q-99 -2 -207 58q-117 -53 -280 -53h-25q-20 0 -20 20v42q0 19 20 19h25q114 0 201 27q-86 78 -86 162q0 42 22.5 79t56.5 49l1 1l-44 15q-22 7 -15 22z" />
    <glyph glyph-name="uniFBAB" unicode="&#x6be;" horiz-adv-x="644" arabic-form="final" 
d="M86 0h-26q-20 0 -20 20v42q0 19 20 19h26q50 0 104 10q15 153 77.5 243t151.5 90q58 0 98 -38.5t40 -102.5q0 -59 -39 -110t-112 -79v-1q77 -12 217 -12h21v-81h-21q-114 0 -185 23v-1q63 -28 96 -73.5t33 -92.5q0 -60 -42 -103t-108 -43q-89 0 -153.5 80t-76.5 220
q-58 -10 -101 -10zM266 29q1 -100 45 -169t105 -69q31 0 51.5 20.5t20.5 52.5q0 47 -53.5 93t-168.5 72zM268 102q107 26 159.5 77t52.5 98q0 30 -17.5 48t-44.5 18q-49 0 -89 -59.5t-61 -181.5z" />
    <glyph glyph-name="uniFBAC" unicode="&#x6be;" horiz-adv-x="688" arabic-form="initial" 
d="M-10 81h24q114 0 201 27q-86 78 -86 162q0 42 22.5 79t56.5 49l1 1l-44 15q-22 7 -15 22l20 39q7 14 21 10q183 -52 310 -158t127 -218q0 -54 -35 -84t-96 -30q-97 0 -203 58q-117 -53 -280 -53h-24q-30 0 -30 40q0 41 30 41zM397 270q0 33 -35 58t-78 25q-36 0 -61 -22
t-25 -56q0 -68 97 -133q49 27 75.5 61t26.5 67zM484 76q65 0 65 47q0 29 -25.5 70.5t-63.5 72.5v-1q1 -5 1 -10q0 -39 -23.5 -80.5t-64.5 -73.5q61 -25 111 -25z" />
    <glyph glyph-name="uniFBAD" unicode="&#x6be;" horiz-adv-x="572" arabic-form="medial" 
d="M-10 81h24q50 0 104 10q15 153 77.5 243t151.5 90q58 0 98 -38.5t40 -102.5q0 -59 -39 -110t-112 -79v-1q77 -12 217 -12h21v-81h-21q-114 0 -185 23v-1q63 -28 96 -73.5t33 -92.5q0 -60 -42 -103t-108 -43q-89 0 -153.5 80t-76.5 220q-58 -10 -101 -10h-24q-30 0 -30 40
q0 41 30 41zM194 29q1 -100 45 -169t105 -69q31 0 51.5 20.5t20.5 52.5q0 47 -53.5 93t-168.5 72zM196 102q107 26 159.5 77t52.5 98q0 30 -17.5 48t-44.5 18q-49 0 -89 -59.5t-61 -181.5z" />
    <glyph glyph-name="uniFBAE" unicode="&#x6d2;" horiz-adv-x="882" arabic-form="isolated" 
d="M207 81h625q20 0 20 -19v-42q0 -20 -20 -20h-614q-158 0 -158 127q0 42 26 78t59.5 58.5t81.5 55.5t75 60q15 15 27 6l30 -24q14 -12 3 -26q-30 -36 -108 -85q-55 -35 -85 -63.5t-30 -57.5q0 -48 68 -48z" />
    <glyph glyph-name="uniFBAF" unicode="&#x6d2;" horiz-adv-x="586" arabic-form="final" 
d="M273 -168h453q19 0 19 -18v-45q0 -18 -19 -18h-445q-113 0 -167 40t-54 125q0 79 47 122t141 43h338v-81h-339q-59 0 -83.5 -21t-24.5 -63q0 -45 33.5 -64.5t100.5 -19.5z" />
    <glyph glyph-name="uniFBB0" unicode="&#x6d3;" horiz-adv-x="882" arabic-form="isolated" 
d="M207 81h625q20 0 20 -19v-42q0 -20 -20 -20h-614q-158 0 -158 127q0 42 26 78t59.5 58.5t81.5 55.5t75 60q15 15 27 6l30 -24q14 -12 3 -26q-30 -36 -108 -85q-55 -35 -85 -63.5t-30 -57.5q0 -48 68 -48zM96 567h37q-19 28 -19 61q0 37 26 59t64 22q39 0 70 -18
q9 -6 5 -14l-6 -20q-5 -9 -13 -4q-24 12 -51 12q-20 0 -33.5 -12.5t-13.5 -33.5q0 -26 19 -52h101q9 0 9 -10v-23q0 -11 -9 -11h-186q-9 0 -9 11v23q0 10 9 10z" />
    <glyph glyph-name="uniFBB1" unicode="&#x6d3;" horiz-adv-x="586" arabic-form="final" 
d="M273 -168h453q19 0 19 -18v-45q0 -18 -19 -18h-445q-113 0 -167 40t-54 125q0 79 47 122t141 43h338v-81h-339q-59 0 -83.5 -21t-24.5 -63q0 -45 33.5 -64.5t100.5 -19.5zM117 245h37q-19 28 -19 61q0 37 26 59t64 22q39 0 70 -18q9 -6 5 -14l-6 -20q-5 -9 -13 -4
q-24 12 -51 12q-20 0 -33.5 -12.5t-13.5 -33.5q0 -26 19 -52h101q9 0 9 -10v-23q0 -11 -9 -11h-186q-9 0 -9 11v23q0 10 9 10z" />
    <glyph glyph-name="uniFBE8" unicode="&#x649;" horiz-adv-x="276" arabic-form="initial" 
d="M-10 81h68q41 0 54 14.5t13 57.5v233q0 20 19 20h38q20 0 20 -20v-271q0 -115 -132 -115h-80q-30 0 -30 40q0 41 30 41z" />
    <glyph glyph-name="uniFBE9" unicode="&#x649;" horiz-adv-x="321" arabic-form="medial" 
d="M-10 81h78q41 0 54 14.5t13 57.5v233q0 20 19 20h38q20 0 20 -20v-266q36 -39 99 -39h10v-81h-10q-72 0 -112 54q-29 -54 -119 -54h-90q-30 0 -30 40q0 41 30 41z" />
    <glyph glyph-name="uniFBFC" unicode="&#x6cc;" horiz-adv-x="832" arabic-form="isolated" 
d="M389 -139q105 0 185.5 30t80.5 79q0 27 -27 49.5t-65 41t-76 40.5t-65 59.5t-27 86.5q0 91 59 139t146 48q89 0 166 -50q14 -9 8 -20l-18 -40q-7 -16 -23 -7q-67 37 -134 37q-56 0 -90.5 -27t-34.5 -80q0 -35 27 -61.5t65 -45.5t76 -39t65 -52.5t27 -75.5q0 -85 -95 -139
t-249 -54q-55 0 -103 7.5t-92.5 26t-76 46.5t-50 72t-18.5 100q0 88 45 177q11 21 28 13l32 -15q18 -9 9 -26q-35 -70 -35 -142q0 -178 260 -178z" />
    <glyph glyph-name="uniFBFD" unicode="&#x6cc;" horiz-adv-x="757" arabic-form="final" 
d="M533 47l-81 30q-16 6 -10 23l12 37q7 19 26 12l73 -27q112 -41 178 -41h26v-81h-39q19 -23 19 -50q0 -51 -51 -91t-129.5 -59.5t-166.5 -19.5q-55 0 -103 7.5t-92.5 26t-76 46.5t-50 72t-18.5 100q0 88 45 177q11 21 28 13l32 -15q18 -9 9 -26q-35 -70 -35 -142
q0 -178 260 -178q119 0 194 31.5t75 69.5q0 25 -30 43t-95 42z" />
    <glyph glyph-name="uniFBFE" unicode="&#x6cc;" horiz-adv-x="276" arabic-form="initial" 
d="M-10 81h68q41 0 54 14.5t13 57.5v233q0 20 19 20h38q20 0 20 -20v-271q0 -115 -132 -115h-80q-30 0 -30 40q0 41 30 41zM123 -212q-21 0 -35 12.5t-14 33.5q0 20 14 33t35 13t35 -13t14 -33q0 -21 -14 -33.5t-35 -12.5zM-7 -212q-21 0 -35 12.5t-14 33.5q0 20 14 33
t35 13t35 -13t14 -33q0 -21 -14 -33.5t-35 -12.5z" />
    <glyph glyph-name="uniFBFF" unicode="&#x6cc;" horiz-adv-x="321" arabic-form="medial" 
d="M-10 81h78q41 0 54 14.5t13 57.5v233q0 20 19 20h38q20 0 20 -20v-266q36 -39 99 -39h10v-81h-10q-72 0 -112 54q-29 -54 -119 -54h-90q-30 0 -30 40q0 41 30 41zM133 -212q-21 0 -35 12.5t-14 33.5q0 20 14 33t35 13t35 -13t14 -33q0 -21 -14 -33.5t-35 -12.5zM3 -212
q-21 0 -35 12.5t-14 33.5q0 20 14 33t35 13t35 -13t14 -33q0 -21 -14 -33.5t-35 -12.5z" />
    <glyph glyph-name="uniFC5E" unicode="&#xfc5e;" arabic-form="isolated" 
d="M19 671v-74q0 -26 23 -26q22 0 22 28v85q0 10 6 10h25q7 0 7 -10v-85q0 -66 -54 -66q-32 0 -44 26q-12 -36 -51 -36q-26 0 -40.5 18.5t-14.5 49.5v67q0 10 7 10h25q6 0 6 -10v-70q0 -27 22 -27q23 0 23 28v82q0 10 6 10h26q6 0 6 -10zM-52 746q-10 -3 -17 0.5t-7 10.5
q0 4 4 24t4 31q0 24 -21 24q-6 0 -14 -2q-9 -3 -9 6v19q0 9 7 11q16 4 25 4q49 0 49 -48q0 -19 -4 -36q40 10 68 33q-60 14 -60 67q0 32 19 51.5t47 19.5q32 0 49 -21t17 -57q0 -88 -157 -137zM11 893q0 -18 10 -28t37 -14q9 15 9 37q0 38 -28 38t-28 -33z" />
    <glyph glyph-name="uniFC5F" unicode="&#xfc5f;" arabic-form="isolated" 
d="M102 575v-16q0 -13 -14 -14l-176 -21q-14 -2 -14 14v16q0 13 14 14l176 21q14 2 14 -14zM102 657v-16q0 -13 -14 -14l-176 -21q-14 -2 -14 14v16q0 13 14 14l176 21q14 2 14 -14zM19 877v-74q0 -26 23 -26q22 0 22 28v85q0 10 6 10h25q7 0 7 -10v-85q0 -66 -54 -66
q-32 0 -44 26q-12 -36 -51 -36q-26 0 -40.5 18.5t-14.5 49.5v67q0 10 7 10h25q6 0 6 -10v-70q0 -27 22 -27q23 0 23 28v82q0 10 6 10h26q6 0 6 -10z" />
    <glyph glyph-name="uniFC60" unicode="&#xfc60;" arabic-form="isolated" 
d="M19 671v-74q0 -26 23 -26q22 0 22 28v85q0 10 6 10h25q7 0 7 -10v-85q0 -66 -54 -66q-32 0 -44 26q-12 -36 -51 -36q-26 0 -40.5 18.5t-14.5 49.5v67q0 10 7 10h25q6 0 6 -10v-70q0 -27 22 -27q23 0 23 28v82q0 10 6 10h26q6 0 6 -10zM102 809v-16q0 -13 -14 -14
l-176 -21q-14 -2 -14 14v16q0 13 14 14l176 21q14 2 14 -14z" />
    <glyph glyph-name="uniFC61" unicode="&#xfc61;" arabic-form="isolated" 
d="M19 671v-74q0 -26 23 -26q22 0 22 28v85q0 10 6 10h25q7 0 7 -10v-85q0 -66 -54 -66q-32 0 -44 26q-12 -36 -51 -36q-26 0 -40.5 18.5t-14.5 49.5v67q0 10 7 10h25q6 0 6 -10v-70q0 -27 22 -27q23 0 23 28v82q0 10 6 10h26q6 0 6 -10zM5 897q0 -18 10 -28t37 -14
q9 15 9 37q0 38 -28 38t-28 -33zM-88 781q72 20 114 48q-60 14 -60 69q0 31 19.5 49t47.5 18q32 0 49 -21t17 -57q0 -29 -14.5 -52t-42.5 -39.5t-54 -27t-64 -22.5q-14 -5 -17 8l-3 11q-3 13 8 16z" />
    <glyph glyph-name="uniFC62" unicode="&#xfc62;" arabic-form="isolated" 
d="M102 575v-16q0 -13 -14 -14l-176 -21q-14 -2 -14 14v16q0 13 14 14l176 21q14 2 14 -14zM19 799v-74q0 -26 23 -26q22 0 22 28v85q0 10 6 10h25q7 0 7 -10v-85q0 -66 -54 -66q-32 0 -44 26q-12 -36 -51 -36q-26 0 -40.5 18.5t-14.5 49.5v67q0 10 7 10h25q6 0 6 -10v-70
q0 -27 22 -27q23 0 23 28v82q0 10 6 10h26q6 0 6 -10z" />
    <glyph glyph-name="uniFC63" unicode="&#xfc63;" arabic-form="isolated" 
d="M19 671v-74q0 -26 23 -26q22 0 22 28v85q0 10 6 10h25q7 0 7 -10v-85q0 -66 -54 -66q-32 0 -44 26q-12 -36 -51 -36q-26 0 -40.5 18.5t-14.5 49.5v67q0 10 7 10h25q6 0 6 -10v-70q0 -27 22 -27q23 0 23 28v82q0 10 6 10h26q6 0 6 -10zM21 890v-145q0 -10 -9 -10h-23
q-10 0 -10 10v139q0 11 8 12l24 3q10 2 10 -9z" />
    <glyph glyph-name="uniFDF2" unicode="&#xfdf2;" horiz-adv-x="1291" arabic-form="isolated" 
d="M583 0h-96q-120 0 -150 75q-53 -25 -118 -25q-66 0 -112.5 31.5t-46.5 96.5q0 73 67.5 135.5t201.5 106.5v34q0 18 14 21l44 7q19 3 19 -17v-301q0 -45 20.5 -64t73.5 -19h71q41 0 54 14.5t13 57.5v350q0 18 14 21l44 7q19 3 19 -17v-394q36 -39 99 -39h49q43 0 56.5 15
t13.5 60v394q0 18 14 21l44 7q19 3 19 -17v-447q0 -114 -131 -114h-65q-72 0 -112 54q-28 -54 -119 -54zM329 150v196q-86 -28 -137 -70.5t-51 -88.5q0 -25 21.5 -40.5t64.5 -15.5q45 0 102 19zM697 810v-74q0 -26 23 -26q22 0 22 28v85q0 10 6 10h25q7 0 7 -10v-85
q0 -66 -54 -66q-32 0 -44 26q-12 -36 -51 -36q-26 0 -40.5 18.5t-14.5 49.5v67q0 10 7 10h25q6 0 6 -10v-70q0 -27 22 -27q23 0 23 28v82q0 10 6 10h26q6 0 6 -10zM699 1029v-145q0 -10 -9 -10h-23q-10 0 -10 10v139q0 11 8 12l24 3q10 2 10 -9zM1144 21v662q0 18 14 21
l44 7q19 3 19 -17v-673q0 -21 -19 -21h-39q-19 0 -19 21z" />
    <glyph glyph-name="uniFDFA" unicode="&#xfdfa;" horiz-adv-x="1372" arabic-form="isolated" 
d="M900 164h-383q-28 0 -44 18q-13 -18 -47 -18h-194q-42 0 -58 30q-22 -10 -48 -10q-27 0 -46.5 13.5t-19.5 40.5q0 63 106 99v9q0 9 7 10l22 4q4 1 6.5 -1.5t2.5 -7.5v-117q0 -16 7.5 -23t25.5 -7h184q13 0 17.5 5t4.5 20v93q0 10 10 10h18q10 0 10 -10v-105
q15 -13 36 -13h378q13 0 17.5 5t4.5 20v207q0 9 7 10l22 4q4 1 6.5 -1.5t2.5 -7.5v-224q15 -13 36 -13h176q-23 29 -23 61t22 53.5t56 21.5q31 0 59 -18q6 -4 4 -10l-9 -19q-3 -7 -11 -3q-22 10 -41 10q-41 0 -41 -38q0 -31 27 -58h88q10 0 10 -9v-21q0 -10 -10 -10h-307
q-28 0 -44 18q-13 -18 -47 -18zM115 -266q-10 46 -10 77q0 35 15.5 51t49.5 18q-13 20 -13 49q0 38 20.5 58.5t55.5 20.5t55.5 -21.5t20.5 -61.5q0 -30 -11 -45h268q13 0 17.5 5t4.5 20v207q0 9 7 10l22 4q4 1 6.5 -1.5t2.5 -7.5v-223q14 -14 36 -14h98q30 0 30 30v52
q0 10 10 10h18q10 0 10 -10v-68q17 -14 35 -14q31 0 31 30v52q0 10 10 10h18q10 0 10 -10v-68q16 -14 33 -14q30 0 30 30v88q0 10 10 10h18q10 0 10 -10v-100q0 -24 -15.5 -41t-46.5 -17q-32 0 -51 22q-17 -22 -51 -22q-33 0 -53 22q-17 -22 -51 -22h-103q-28 0 -44 19
q-13 -19 -47 -19h-382q-26 0 -35.5 -5.5t-9.5 -25.5q0 -23 10 -69q3 -13 -6 -14l-20 -3q-10 -1 -13 11zM784 507l-34 13q-8 3 -5 11l6 18q3 12 14 7l29 -11q44 -17 71 -17h31q13 0 17.5 5t4.5 20v207q0 9 7 10l22 4q4 1 6.5 -1.5t2.5 -7.5v-224q15 -13 36 -13h34v118
q0 10 10 10h18q10 0 10 -10v-56q54 74 113 74q39 0 62.5 -28t23.5 -76q0 -39 -20 -55.5t-65 -16.5h-186q-28 0 -44 18q-14 -18 -47 -18h-36q5 -8 5 -18q0 -33 -46.5 -51t-106.5 -18q-150 0 -150 104q0 36 18 72q5 11 15 7l16 -7q10 -5 5 -15q-14 -32 -14 -54q0 -67 109 -67
q36 0 63 5.5t39 13.5t12 16t-10 14.5t-36 16.5zM488 718v-180q0 -50 -56 -50h-26q-26 0 -44 18q-12 -18 -47 -18h-38q-42 0 -58 30q-22 -10 -48 -10q-27 0 -46.5 13.5t-19.5 40.5q0 63 106 99v9q0 9 7 10l22 4q4 1 6.5 -1.5t2.5 -7.5v-117q0 -16 7.5 -23t25.5 -7h28
q14 0 18.5 5t4.5 20v139q0 9 7 10l22 4q4 1 6.5 -1.5t2.5 -7.5v-155q14 -14 35 -14h20q15 0 19.5 5.5t4.5 20.5v159q0 9 7 10l22 4q4 1 6.5 -1.5t2.5 -7.5zM1168 -247q-9 -5 -14 5l-8 16q-3 7 5 11q58 28 69 62q-15 -7 -35 -7q-33 0 -53.5 23t-20.5 62q0 38 20.5 60.5
t56.5 22.5q34 0 54.5 -20t20.5 -59v-37q0 -49 -18.5 -79.5t-76.5 -59.5zM802 -261v33q0 7 7 7h13q7 0 7 -7v-43q8 -7 18 -7q16 0 16 17v54q0 7 7 7h13q7 0 7 -7v-61q0 -15 -10 -25.5t-29 -10.5t-31 13q-10 -13 -31 -13q-20 0 -32 12q-10 -12 -30 -12h-144q-9 0 -9 7v10
q0 9 9 9h139q17 0 17 17v33q0 7 7 7h13q7 0 7 -7v-42q9 -8 20 -8q16 0 16 17zM1062 528h126q35 0 35 37q0 27 -12.5 43t-34.5 16q-56 0 -114 -96zM706 765v-267q0 -10 -10 -10h-18q-10 0 -10 10v262q0 9 7 10l22 4q4 1 6.5 -1.5t2.5 -7.5zM1151 -75q0 -45 40 -45q21 0 34 10
v38q0 40 -35 40q-39 0 -39 -43zM197 -76q0 -25 14 -44h20q39 0 39 44t-37 44q-36 0 -36 -44zM318 812v-24q0 -12 11 -12q13 0 13 11v30q0 6 6 6h10q6 0 6 -6v-26q0 -11 12 -11t12 12v30q0 6 6 6h10q6 0 6 -6v-29q0 -36 -32 -36q-13 0 -22 9q-9 -13 -28 -13q-32 0 -32 36v23
q0 6 6 6h10q6 0 6 -6zM211 555v68q-27 -9 -46.5 -25t-19.5 -31q0 -19 30 -19q19 0 36 7zM166 231v68q-27 -9 -46.5 -25t-19.5 -31q0 -19 30 -19q18 0 36 7zM1267 395l-128 -15q-8 0 -8 8v8q0 7 8 8l128 15q8 0 8 -8v-8q0 -7 -8 -8zM1127 731l-128 -15q-8 0 -8 8v8q0 7 8 8
l128 15q8 0 8 -8v-8q0 -7 -8 -8zM762 305l-128 -15q-8 0 -8 8v8q0 7 8 8l128 15q8 0 8 -8v-8q0 -7 -8 -8zM871 47l-128 -15q-8 0 -8 8v8q0 7 8 8l128 15q8 0 8 -8v-8q0 -7 -8 -8zM828 693q0 -30 -14 -60q-4 -7 -10 -6l-8 1q-7 1 -4 8q13 29 13 57t-13 57q-3 7 4 8l8 1
q6 1 10 -6q14 -30 14 -60zM455 103q0 -9 -7 -15.5t-16 -6.5t-16 6.5t-7 15.5t7 15.5t16 6.5t16 -6.5t7 -15.5zM514 103q0 -9 -7 -15.5t-16 -6.5t-16 6.5t-7 15.5t7 15.5t16 6.5t16 -6.5t7 -15.5zM342 848v50q0 6 4 7l12 2q3 1 4.5 -1t1.5 -5v-53q0 -6 -6 -6h-10q-6 0 -6 6z
" />
    <glyph glyph-name="uniFE80" unicode="&#x621;" horiz-adv-x="513" arabic-form="isolated" 
d="M259 73h176q18 0 18 -17v-38q0 -18 -18 -18h-357q-18 0 -18 18v38q0 17 18 17h101q-49 58 -49 123q0 62 41.5 101t108.5 39q62 0 111 -32q15 -10 9 -23l-14 -30q-9 -20 -25 -12q-42 21 -77 21q-38 0 -57.5 -20t-19.5 -53q0 -61 52 -114z" />
    <glyph glyph-name="uniFE81" unicode="&#x622;" horiz-adv-x="225" arabic-form="isolated" 
d="M74 21v662q0 18 14 21l44 7q19 3 19 -17v-673q0 -21 -19 -21h-39q-19 0 -19 21zM177 800q-27 0 -66 18q-43 20 -64 20q-22 0 -39 -21q-8 -8 -13 -1l-14 16q-6 8 0 15q29 41 68 41q31 0 67 -19q42 -19 60 -19q22 0 39 21q8 8 13 1l14 -16q6 -8 0 -15q-29 -41 -65 -41z" />
    <glyph glyph-name="uniFE82" unicode="&#x622;" horiz-adv-x="249" arabic-form="final" 
d="M151 694v-538q0 -45 13.5 -60t56.5 -15h28v-81h-44q-131 0 -131 114v569q0 18 14 21l44 7q19 3 19 -17zM177 800q-27 0 -66 18q-43 20 -64 20q-22 0 -39 -21q-8 -8 -13 -1l-14 16q-6 8 0 15q29 41 68 41q31 0 67 -19q42 -19 60 -19q22 0 39 21q8 8 13 1l14 -16
q6 -8 0 -15q-29 -41 -65 -41z" />
    <glyph glyph-name="uniFE83" unicode="&#x623;" horiz-adv-x="225" arabic-form="isolated" 
d="M74 21v662q0 18 14 21l44 7q19 3 19 -17v-673q0 -21 -19 -21h-39q-19 0 -19 21zM19 844h37q-19 28 -19 61q0 37 26 59t64 22q39 0 70 -18q9 -6 5 -14l-6 -20q-5 -9 -13 -4q-24 12 -51 12q-20 0 -33.5 -12.5t-13.5 -33.5q0 -26 19 -52h101q9 0 9 -10v-23q0 -11 -9 -11
h-186q-9 0 -9 11v23q0 10 9 10z" />
    <glyph glyph-name="uniFE84" unicode="&#x623;" horiz-adv-x="249" arabic-form="final" 
d="M151 694v-538q0 -45 13.5 -60t56.5 -15h28v-81h-44q-131 0 -131 114v569q0 18 14 21l44 7q19 3 19 -17zM19 844h37q-19 28 -19 61q0 37 26 59t64 22q39 0 70 -18q9 -6 5 -14l-6 -20q-5 -9 -13 -4q-24 12 -51 12q-20 0 -33.5 -12.5t-13.5 -33.5q0 -26 19 -52h101
q9 0 9 -10v-23q0 -11 -9 -11h-186q-9 0 -9 11v23q0 10 9 10z" />
    <glyph glyph-name="uniFE85" unicode="&#x624;" horiz-adv-x="494" arabic-form="isolated" 
d="M160 -151q85 43 123.5 81t50.5 98q-46 -28 -101 -28q-80 0 -128.5 55t-48.5 151q0 91 49.5 145.5t134.5 54.5q83 0 131.5 -48t48.5 -142v-94q0 -133 -45.5 -204.5t-184.5 -134.5q-16 -7 -24 8l-18 34q-8 14 12 24zM343 216q0 109 -100 109q-52 0 -80 -32t-28 -86
q0 -126 110 -126q53 0 98 32v103zM148 567h37q-19 28 -19 61q0 37 26 59t64 22q39 0 70 -18q9 -6 5 -14l-6 -20q-5 -9 -13 -4q-24 12 -51 12q-20 0 -33.5 -12.5t-13.5 -33.5q0 -26 19 -52h101q9 0 9 -10v-23q0 -11 -9 -11h-186q-9 0 -9 11v23q0 10 9 10z" />
    <glyph glyph-name="uniFE86" unicode="&#x624;" horiz-adv-x="519" arabic-form="final" 
d="M160 -151q76 38 113.5 71.5t53.5 79.5h-82q-91 0 -140 51t-49 155q0 91 49.5 145.5t134.5 54.5q83 0 131.5 -48t48.5 -142v-94q0 -7 -0.5 -21t-0.5 -20h100v-81h-110q-17 -71 -66.5 -120.5t-152.5 -96.5q-16 -7 -24 8l-18 34q-8 14 12 24zM343 136v80q0 109 -100 109
q-52 0 -80 -32t-28 -86q0 -73 29.5 -99.5t99.5 -26.5h77q2 34 2 55zM148 567h37q-19 28 -19 61q0 37 26 59t64 22q39 0 70 -18q9 -6 5 -14l-6 -20q-5 -9 -13 -4q-24 12 -51 12q-20 0 -33.5 -12.5t-13.5 -33.5q0 -26 19 -52h101q9 0 9 -10v-23q0 -11 -9 -11h-186q-9 0 -9 11
v23q0 10 9 10z" />
    <glyph glyph-name="uniFE87" unicode="&#x625;" horiz-adv-x="225" arabic-form="isolated" 
d="M74 21v662q0 18 14 21l44 7q19 3 19 -17v-673q0 -21 -19 -21h-39q-19 0 -19 21zM15 -252h37q-19 29 -19 61q0 37 26 59t64 22q39 0 70 -18q9 -6 5 -14l-6 -20q-5 -9 -13 -4q-24 12 -51 12q-20 0 -33.5 -12.5t-13.5 -33.5q0 -26 19 -52h101q9 0 9 -10v-23q0 -11 -9 -11
h-186q-9 0 -9 11v23q0 10 9 10z" />
    <glyph glyph-name="uniFE88" unicode="&#x625;" horiz-adv-x="249" arabic-form="final" 
d="M151 694v-538q0 -45 13.5 -60t56.5 -15h28v-81h-44q-131 0 -131 114v569q0 18 14 21l44 7q19 3 19 -17zM15 -252h37q-19 29 -19 61q0 37 26 59t64 22q39 0 70 -18q9 -6 5 -14l-6 -20q-5 -9 -13 -4q-24 12 -51 12q-20 0 -33.5 -12.5t-13.5 -33.5q0 -26 19 -52h101
q9 0 9 -10v-23q0 -11 -9 -11h-186q-9 0 -9 11v23q0 10 9 10z" />
    <glyph glyph-name="uniFE89" unicode="&#x626;" horiz-adv-x="832" arabic-form="isolated" 
d="M389 -139q105 0 185.5 30t80.5 79q0 27 -27 49.5t-65 41t-76 40.5t-65 59.5t-27 86.5q0 91 59 139t146 48q89 0 166 -50q14 -9 8 -20l-18 -40q-7 -16 -23 -7q-67 37 -134 37q-56 0 -90.5 -27t-34.5 -80q0 -35 27 -61.5t65 -45.5t76 -39t65 -52.5t27 -75.5q0 -85 -95 -139
t-249 -54q-55 0 -103 7.5t-92.5 26t-76 46.5t-50 72t-18.5 100q0 88 45 177q11 21 28 13l32 -15q18 -9 9 -26q-35 -70 -35 -142q0 -178 260 -178zM33 389h37q-19 28 -19 61q0 37 26 59t64 22q39 0 70 -18q9 -6 5 -14l-6 -20q-5 -9 -13 -4q-24 12 -51 12q-20 0 -33.5 -12.5
t-13.5 -33.5q0 -26 19 -52h101q9 0 9 -10v-23q0 -11 -9 -11h-186q-9 0 -9 11v23q0 10 9 10z" />
    <glyph glyph-name="uniFE8A" unicode="&#x626;" horiz-adv-x="757" arabic-form="final" 
d="M533 47l-81 30q-16 6 -10 23l12 37q7 19 26 12l73 -27q112 -41 178 -41h26v-81h-39q19 -23 19 -50q0 -51 -51 -91t-129.5 -59.5t-166.5 -19.5q-55 0 -103 7.5t-92.5 26t-76 46.5t-50 72t-18.5 100q0 88 45 177q11 21 28 13l32 -15q18 -9 9 -26q-35 -70 -35 -142
q0 -178 260 -178q119 0 194 31.5t75 69.5q0 25 -30 43t-95 42zM33 389h37q-19 28 -19 61q0 37 26 59t64 22q39 0 70 -18q9 -6 5 -14l-6 -20q-5 -9 -13 -4q-24 12 -51 12q-20 0 -33.5 -12.5t-13.5 -33.5q0 -26 19 -52h101q9 0 9 -10v-23q0 -11 -9 -11h-186q-9 0 -9 11v23
q0 10 9 10z" />
    <glyph glyph-name="uniFE8B" unicode="&#x626;" horiz-adv-x="276" arabic-form="initial" 
d="M-10 81h68q41 0 54 14.5t13 57.5v233q0 20 19 20h38q20 0 20 -20v-271q0 -115 -132 -115h-80q-30 0 -30 40q0 41 30 41zM70 567h37q-19 28 -19 61q0 37 26 59t64 22q39 0 70 -18q9 -6 5 -14l-6 -20q-5 -9 -13 -4q-24 12 -51 12q-20 0 -33.5 -12.5t-13.5 -33.5
q0 -26 19 -52h101q9 0 9 -10v-23q0 -11 -9 -11h-186q-9 0 -9 11v23q0 10 9 10z" />
    <glyph glyph-name="uniFE8C" unicode="&#x626;" horiz-adv-x="321" arabic-form="medial" 
d="M-10 81h78q41 0 54 14.5t13 57.5v233q0 20 19 20h38q20 0 20 -20v-266q36 -39 99 -39h10v-81h-10q-72 0 -112 54q-29 -54 -119 -54h-90q-30 0 -30 40q0 41 30 41zM80 567h37q-19 28 -19 61q0 37 26 59t64 22q39 0 70 -18q9 -6 5 -14l-6 -20q-5 -9 -13 -4q-24 12 -51 12
q-20 0 -33.5 -12.5t-13.5 -33.5q0 -26 19 -52h101q9 0 9 -10v-23q0 -11 -9 -11h-186q-9 0 -9 11v23q0 10 9 10z" />
    <glyph glyph-name="uniFE8D" unicode="&#x627;" horiz-adv-x="225" arabic-form="isolated" 
d="M74 21v662q0 18 14 21l44 7q19 3 19 -17v-673q0 -21 -19 -21h-39q-19 0 -19 21z" />
    <glyph glyph-name="uniFE8E" unicode="&#x627;" horiz-adv-x="249" arabic-form="final" 
d="M151 694v-538q0 -45 13.5 -60t56.5 -15h28v-81h-44q-131 0 -131 114v569q0 18 14 21l44 7q19 3 19 -17z" />
    <glyph glyph-name="uniFE8F" unicode="&#x628;" horiz-adv-x="896" arabic-form="isolated" 
d="M305 81h373q41 0 54 14.5t13 57.5v233q0 20 19 20h38q20 0 20 -20v-271q0 -115 -132 -115h-408q-113 0 -172.5 54.5t-59.5 152.5v115q0 20 20 20h38q19 0 19 -20v-65q0 -98 38 -137t140 -39zM445 -212q-21 0 -35 12.5t-14 33.5q0 20 14 33t35 13t35 -13t14 -33
q0 -21 -14 -33.5t-35 -12.5z" />
    <glyph glyph-name="uniFE90" unicode="&#x628;" horiz-adv-x="931" arabic-form="final" 
d="M305 81h373q41 0 54 14.5t13 57.5v233q0 20 19 20h38q20 0 20 -20v-266q36 -39 99 -39h10v-81h-10q-72 0 -112 54q-29 -54 -119 -54h-408q-113 0 -172.5 54.5t-59.5 152.5v115q0 20 20 20h38q19 0 19 -20v-65q0 -98 38 -137t140 -39zM442 -212q-21 0 -35 12.5t-14 33.5
q0 20 14 33t35 13t35 -13t14 -33q0 -21 -14 -33.5t-35 -12.5z" />
    <glyph glyph-name="uniFE91" unicode="&#x628;" horiz-adv-x="276" arabic-form="initial" 
d="M-10 81h68q41 0 54 14.5t13 57.5v233q0 20 19 20h38q20 0 20 -20v-271q0 -115 -132 -115h-80q-30 0 -30 40q0 41 30 41zM52 -212q-21 0 -35 12.5t-14 33.5q0 20 14 33t35 13t35 -13t14 -33q0 -21 -14 -33.5t-35 -12.5z" />
    <glyph glyph-name="uniFE92" unicode="&#x628;" horiz-adv-x="321" arabic-form="medial" 
d="M-10 81h78q41 0 54 14.5t13 57.5v233q0 20 19 20h38q20 0 20 -20v-266q36 -39 99 -39h10v-81h-10q-72 0 -112 54q-29 -54 -119 -54h-90q-30 0 -30 40q0 41 30 41zM62 -212q-21 0 -35 12.5t-14 33.5q0 20 14 33t35 13t35 -13t14 -33q0 -21 -14 -33.5t-35 -12.5z" />
    <glyph glyph-name="uniFE93" unicode="&#x629;" horiz-adv-x="496" arabic-form="isolated" 
d="M248 -6q-88 0 -140 53.5t-52 148.5q0 91 51 159.5t141 68.5t141 -68.5t51 -159.5q0 -95 -52 -148.5t-140 -53.5zM248 75q56 0 84.5 34t28.5 86q0 57 -29 102.5t-84 45.5t-84 -45.5t-29 -102.5q0 -52 28.5 -86t84.5 -34zM313 534q-21 0 -35 12.5t-14 33.5q0 20 14 33
t35 13t35 -13t14 -33q0 -21 -14 -33.5t-35 -12.5zM183 534q-21 0 -35 12.5t-14 33.5q0 20 14 33t35 13t35 -13t14 -33q0 -21 -14 -33.5t-35 -12.5z" />
    <glyph glyph-name="uniFE94" unicode="&#x629;" horiz-adv-x="495" arabic-form="final" 
d="M319 420v34q0 18 14 21l44 7q19 3 19 -17v-301q0 -45 20.5 -64t73.5 -19h5v-81h-18q-120 0 -150 75q-53 -25 -118 -25q-66 0 -112.5 31.5t-46.5 96.5q0 73 67.5 135.5t201.5 106.5zM319 150v196q-86 -28 -137 -70.5t-51 -88.5q0 -25 21.5 -40.5t64.5 -15.5q45 0 102 19z
M399 591q-21 0 -35 12.5t-14 33.5q0 20 14 33t35 13t35 -13t14 -33q0 -21 -14 -33.5t-35 -12.5zM269 591q-21 0 -35 12.5t-14 33.5q0 20 14 33t35 13t35 -13t14 -33q0 -21 -14 -33.5t-35 -12.5z" />
    <glyph glyph-name="uniFE95" unicode="&#x62a;" horiz-adv-x="896" arabic-form="isolated" 
d="M305 81h373q41 0 54 14.5t13 57.5v233q0 20 19 20h38q20 0 20 -20v-271q0 -115 -132 -115h-408q-113 0 -172.5 54.5t-59.5 152.5v115q0 20 20 20h38q19 0 19 -20v-65q0 -98 38 -137t140 -39zM509 467q-21 0 -35 12.5t-14 33.5q0 20 14 33t35 13t35 -13t14 -33
q0 -21 -14 -33.5t-35 -12.5zM379 467q-21 0 -35 12.5t-14 33.5q0 20 14 33t35 13t35 -13t14 -33q0 -21 -14 -33.5t-35 -12.5z" />
    <glyph glyph-name="uniFE96" unicode="&#x62a;" horiz-adv-x="931" arabic-form="final" 
d="M305 81h373q41 0 54 14.5t13 57.5v233q0 20 19 20h38q20 0 20 -20v-266q36 -39 99 -39h10v-81h-10q-72 0 -112 54q-29 -54 -119 -54h-408q-113 0 -172.5 54.5t-59.5 152.5v115q0 20 20 20h38q19 0 19 -20v-65q0 -98 38 -137t140 -39zM500 467q-21 0 -35 12.5t-14 33.5
q0 20 14 33t35 13t35 -13t14 -33q0 -21 -14 -33.5t-35 -12.5zM370 467q-21 0 -35 12.5t-14 33.5q0 20 14 33t35 13t35 -13t14 -33q0 -21 -14 -33.5t-35 -12.5z" />
    <glyph glyph-name="uniFE97" unicode="&#x62a;" horiz-adv-x="276" arabic-form="initial" 
d="M-10 81h68q41 0 54 14.5t13 57.5v233q0 20 19 20h38q20 0 20 -20v-271q0 -115 -132 -115h-80q-30 0 -30 40q0 41 30 41zM227 526q-21 0 -35 12.5t-14 33.5q0 20 14 33t35 13t35 -13t14 -33q0 -21 -14 -33.5t-35 -12.5zM97 526q-21 0 -35 12.5t-14 33.5q0 20 14 33t35 13
t35 -13t14 -33q0 -21 -14 -33.5t-35 -12.5z" />
    <glyph glyph-name="uniFE98" unicode="&#x62a;" horiz-adv-x="321" arabic-form="medial" 
d="M-10 81h78q41 0 54 14.5t13 57.5v233q0 20 19 20h38q20 0 20 -20v-266q36 -39 99 -39h10v-81h-10q-72 0 -112 54q-29 -54 -119 -54h-90q-30 0 -30 40q0 41 30 41zM244 526q-21 0 -35 12.5t-14 33.5q0 20 14 33t35 13t35 -13t14 -33q0 -21 -14 -33.5t-35 -12.5zM114 526
q-21 0 -35 12.5t-14 33.5q0 20 14 33t35 13t35 -13t14 -33q0 -21 -14 -33.5t-35 -12.5z" />
    <glyph glyph-name="uniFE99" unicode="&#x62b;" horiz-adv-x="896" arabic-form="isolated" 
d="M305 81h373q41 0 54 14.5t13 57.5v233q0 20 19 20h38q20 0 20 -20v-271q0 -115 -132 -115h-408q-113 0 -172.5 54.5t-59.5 152.5v115q0 20 20 20h38q19 0 19 -20v-65q0 -98 38 -137t140 -39zM505 467q-21 0 -35 12.5t-14 33.5q0 20 14 33t35 13t35 -13t14 -33
q0 -21 -14 -33.5t-35 -12.5zM375 467q-21 0 -35 12.5t-14 33.5q0 20 14 33t35 13t35 -13t14 -33q0 -21 -14 -33.5t-35 -12.5zM440 581q-21 0 -35 12.5t-14 33.5q0 20 14 33t35 13t35 -13t14 -33q0 -21 -14 -33.5t-35 -12.5z" />
    <glyph glyph-name="uniFE9A" unicode="&#x62b;" horiz-adv-x="931" arabic-form="final" 
d="M305 81h373q41 0 54 14.5t13 57.5v233q0 20 19 20h38q20 0 20 -20v-266q36 -39 99 -39h10v-81h-10q-72 0 -112 54q-29 -54 -119 -54h-408q-113 0 -172.5 54.5t-59.5 152.5v115q0 20 20 20h38q19 0 19 -20v-65q0 -98 38 -137t140 -39zM496 467q-21 0 -35 12.5t-14 33.5
q0 20 14 33t35 13t35 -13t14 -33q0 -21 -14 -33.5t-35 -12.5zM366 467q-21 0 -35 12.5t-14 33.5q0 20 14 33t35 13t35 -13t14 -33q0 -21 -14 -33.5t-35 -12.5zM431 581q-21 0 -35 12.5t-14 33.5q0 20 14 33t35 13t35 -13t14 -33q0 -21 -14 -33.5t-35 -12.5z" />
    <glyph glyph-name="uniFE9B" unicode="&#x62b;" horiz-adv-x="276" arabic-form="initial" 
d="M-10 81h68q41 0 54 14.5t13 57.5v233q0 20 19 20h38q20 0 20 -20v-271q0 -115 -132 -115h-80q-30 0 -30 40q0 41 30 41zM229 526q-21 0 -35 12.5t-14 33.5q0 20 14 33t35 13t35 -13t14 -33q0 -21 -14 -33.5t-35 -12.5zM99 526q-21 0 -35 12.5t-14 33.5q0 20 14 33t35 13
t35 -13t14 -33q0 -21 -14 -33.5t-35 -12.5zM164 640q-21 0 -35 12.5t-14 33.5q0 20 14 33t35 13t35 -13t14 -33q0 -21 -14 -33.5t-35 -12.5z" />
    <glyph glyph-name="uniFE9C" unicode="&#x62b;" horiz-adv-x="321" arabic-form="medial" 
d="M-10 81h78q41 0 54 14.5t13 57.5v233q0 20 19 20h38q20 0 20 -20v-266q36 -39 99 -39h10v-81h-10q-72 0 -112 54q-29 -54 -119 -54h-90q-30 0 -30 40q0 41 30 41zM244 526q-21 0 -35 12.5t-14 33.5q0 20 14 33t35 13t35 -13t14 -33q0 -21 -14 -33.5t-35 -12.5zM114 526
q-21 0 -35 12.5t-14 33.5q0 20 14 33t35 13t35 -13t14 -33q0 -21 -14 -33.5t-35 -12.5zM179 640q-21 0 -35 12.5t-14 33.5q0 20 14 33t35 13t35 -13t14 -33q0 -21 -14 -33.5t-35 -12.5z" />
    <glyph glyph-name="uniFE9D" unicode="&#x62c;" horiz-adv-x="568" arabic-form="isolated" 
d="M243 344q-53 0 -116 -35q-15 -9 -22 7l-18 40q-5 11 8 20q69 48 154 48q92 0 141 -53.5t69 -152.5q17 -82 51 -113q18 -17 18 -34v-51q0 -20 -20 -20h-222q-86 0 -126.5 -22.5t-40.5 -78.5q0 -108 177 -108q75 0 157 24q13 3 17 1t7 -10l14 -37q6 -18 -14 -27
q-71 -32 -186 -32q-119 0 -185 48t-66 141t60.5 137.5t185.5 44.5h151q-22 22 -33.5 48.5t-23.5 79.5q-16 76 -47 105.5t-90 29.5zM302 -153q-21 0 -35 12.5t-14 33.5q0 20 14 33t35 13t35 -13t14 -33q0 -21 -14 -33.5t-35 -12.5z" />
    <glyph glyph-name="uniFE9E" unicode="&#x62c;" horiz-adv-x="587" arabic-form="final" 
d="M249 424q92 0 141.5 -53.5t68.5 -152.5q10 -52 27 -82t53 -55h48v-81h-301q-86 0 -126.5 -22.5t-40.5 -78.5q0 -108 177 -108q75 0 157 24q13 3 17 1t7 -10l14 -37q6 -18 -14 -27q-71 -32 -186 -32q-119 0 -185 48t-66 141t60.5 137.5t185.5 44.5h151q-22 22 -33.5 48.5
t-23.5 79.5q-16 76 -47 105.5t-90 29.5q-53 0 -116 -35q-15 -9 -22 7l-18 40q-5 11 8 20q69 48 154 48zM302 -153q-21 0 -35 12.5t-14 33.5q0 20 14 33t35 13t35 -13t14 -33q0 -21 -14 -33.5t-35 -12.5z" />
    <glyph glyph-name="uniFE9F" unicode="&#x62c;" horiz-adv-x="537" arabic-form="initial" 
d="M-10 81h416q-22 22 -33.5 48.5t-23.5 79.5q-16 76 -47 105.5t-90 29.5q-53 0 -116 -35q-15 -9 -22 7l-18 40q-6 11 8 20q69 48 154 48q92 0 141 -53.5t69 -152.5q17 -82 51 -113q18 -17 18 -34v-51q0 -20 -20 -20h-487q-30 0 -30 40q0 41 30 41zM207 -212q-21 0 -35 12.5
t-14 33.5q0 20 14 33t35 13t35 -13t14 -33q0 -21 -14 -33.5t-35 -12.5z" />
    <glyph glyph-name="uniFEA0" unicode="&#x62c;" horiz-adv-x="556" arabic-form="medial" 
d="M-10 81h416q-22 22 -33.5 48.5t-23.5 79.5q-16 76 -47 105.5t-90 29.5q-53 0 -116 -35q-15 -9 -22 7l-18 40q-6 11 8 20q69 48 154 48q92 0 141.5 -53.5t68.5 -152.5q10 -52 27 -82t53 -55h48v-81h-566q-30 0 -30 40q0 41 30 41zM207 -212q-21 0 -35 12.5t-14 33.5
q0 20 14 33t35 13t35 -13t14 -33q0 -21 -14 -33.5t-35 -12.5z" />
    <glyph glyph-name="uniFEA1" unicode="&#x62d;" horiz-adv-x="568" arabic-form="isolated" 
d="M243 344q-53 0 -116 -35q-15 -9 -22 7l-18 40q-5 11 8 20q69 48 154 48q92 0 141 -53.5t69 -152.5q17 -82 51 -113q18 -17 18 -34v-51q0 -20 -20 -20h-222q-86 0 -126.5 -22.5t-40.5 -78.5q0 -108 177 -108q75 0 157 24q13 3 17 1t7 -10l14 -37q6 -18 -14 -27
q-71 -32 -186 -32q-119 0 -185 48t-66 141t60.5 137.5t185.5 44.5h151q-22 22 -33.5 48.5t-23.5 79.5q-16 76 -47 105.5t-90 29.5z" />
    <glyph glyph-name="uniFEA2" unicode="&#x62d;" horiz-adv-x="587" arabic-form="final" 
d="M249 424q92 0 141.5 -53.5t68.5 -152.5q10 -52 27 -82t53 -55h48v-81h-301q-86 0 -126.5 -22.5t-40.5 -78.5q0 -108 177 -108q75 0 157 24q13 3 17 1t7 -10l14 -37q6 -18 -14 -27q-71 -32 -186 -32q-119 0 -185 48t-66 141t60.5 137.5t185.5 44.5h151q-22 22 -33.5 48.5
t-23.5 79.5q-16 76 -47 105.5t-90 29.5q-53 0 -116 -35q-15 -9 -22 7l-18 40q-5 11 8 20q69 48 154 48z" />
    <glyph glyph-name="uniFEA3" unicode="&#x62d;" horiz-adv-x="537" arabic-form="initial" 
d="M-10 81h416q-22 22 -33.5 48.5t-23.5 79.5q-16 76 -47 105.5t-90 29.5q-53 0 -116 -35q-15 -9 -22 7l-18 40q-6 11 8 20q69 48 154 48q92 0 141 -53.5t69 -152.5q17 -82 51 -113q18 -17 18 -34v-51q0 -20 -20 -20h-487q-30 0 -30 40q0 41 30 41z" />
    <glyph glyph-name="uniFEA4" unicode="&#x62d;" horiz-adv-x="556" arabic-form="medial" 
d="M-10 81h416q-22 22 -33.5 48.5t-23.5 79.5q-16 76 -47 105.5t-90 29.5q-53 0 -116 -35q-15 -9 -22 7l-18 40q-6 11 8 20q69 48 154 48q92 0 141.5 -53.5t68.5 -152.5q10 -52 27 -82t53 -55h48v-81h-566q-30 0 -30 40q0 41 30 41z" />
    <glyph glyph-name="uniFEA5" unicode="&#x62e;" horiz-adv-x="568" arabic-form="isolated" 
d="M243 344q-53 0 -116 -35q-15 -9 -22 7l-18 40q-5 11 8 20q69 48 154 48q92 0 141 -53.5t69 -152.5q17 -82 51 -113q18 -17 18 -34v-51q0 -20 -20 -20h-222q-86 0 -126.5 -22.5t-40.5 -78.5q0 -108 177 -108q75 0 157 24q13 3 17 1t7 -10l14 -37q6 -18 -14 -27
q-71 -32 -186 -32q-119 0 -185 48t-66 141t60.5 137.5t185.5 44.5h151q-22 22 -33.5 48.5t-23.5 79.5q-16 76 -47 105.5t-90 29.5zM246 534q-21 0 -35 12.5t-14 33.5q0 20 14 33t35 13t35 -13t14 -33q0 -21 -14 -33.5t-35 -12.5z" />
    <glyph glyph-name="uniFEA6" unicode="&#x62e;" horiz-adv-x="587" arabic-form="final" 
d="M249 424q92 0 141.5 -53.5t68.5 -152.5q10 -52 27 -82t53 -55h48v-81h-301q-86 0 -126.5 -22.5t-40.5 -78.5q0 -108 177 -108q75 0 157 24q13 3 17 1t7 -10l14 -37q6 -18 -14 -27q-71 -32 -186 -32q-119 0 -185 48t-66 141t60.5 137.5t185.5 44.5h151q-22 22 -33.5 48.5
t-23.5 79.5q-16 76 -47 105.5t-90 29.5q-53 0 -116 -35q-15 -9 -22 7l-18 40q-5 11 8 20q69 48 154 48zM246 534q-21 0 -35 12.5t-14 33.5q0 20 14 33t35 13t35 -13t14 -33q0 -21 -14 -33.5t-35 -12.5z" />
    <glyph glyph-name="uniFEA7" unicode="&#x62e;" horiz-adv-x="537" arabic-form="initial" 
d="M-10 81h416q-22 22 -33.5 48.5t-23.5 79.5q-16 76 -47 105.5t-90 29.5q-53 0 -116 -35q-15 -9 -22 7l-18 40q-6 11 8 20q69 48 154 48q92 0 141 -53.5t69 -152.5q17 -82 51 -113q18 -17 18 -34v-51q0 -20 -20 -20h-487q-30 0 -30 40q0 41 30 41zM218 534q-21 0 -35 12.5
t-14 33.5q0 20 14 33t35 13t35 -13t14 -33q0 -21 -14 -33.5t-35 -12.5z" />
    <glyph glyph-name="uniFEA8" unicode="&#x62e;" horiz-adv-x="556" arabic-form="medial" 
d="M-10 81h416q-22 22 -33.5 48.5t-23.5 79.5q-16 76 -47 105.5t-90 29.5q-53 0 -116 -35q-15 -9 -22 7l-18 40q-6 11 8 20q69 48 154 48q92 0 141.5 -53.5t68.5 -152.5q10 -52 27 -82t53 -55h48v-81h-566q-30 0 -30 40q0 41 30 41zM218 534q-21 0 -35 12.5t-14 33.5
q0 20 14 33t35 13t35 -13t14 -33q0 -21 -14 -33.5t-35 -12.5z" />
    <glyph glyph-name="uniFEA9" unicode="&#x62f;" horiz-adv-x="537" arabic-form="isolated" 
d="M339 0h-279q-20 0 -20 20v42q0 19 20 19h263q44 0 57.5 14.5t13.5 57.5v46q0 79 -35.5 111.5t-125.5 32.5q-40 0 -94 -6q-8 -1 -14 -1q-20 0 -20 17v37q0 14 15 19q52 15 117 15q117 0 175.5 -49t58.5 -167v-93q0 -115 -132 -115z" />
    <glyph glyph-name="uniFEAA" unicode="&#x62f;" horiz-adv-x="580" arabic-form="final" 
d="M580 0h-520q-20 0 -20 20v42q0 19 20 19h334v118q0 79 -35.5 111.5t-125.5 32.5q-40 0 -94 -6q-8 -1 -14 -1q-20 0 -20 17v37q0 14 15 19q52 15 117 15q117 0 175.5 -49t58.5 -167v-127h109v-81z" />
    <glyph glyph-name="uniFEAB" unicode="&#x630;" horiz-adv-x="537" arabic-form="isolated" 
d="M339 0h-279q-20 0 -20 20v42q0 19 20 19h263q44 0 57.5 14.5t13.5 57.5v46q0 79 -35.5 111.5t-125.5 32.5q-40 0 -94 -6q-8 -1 -14 -1q-20 0 -20 17v37q0 14 15 19q52 15 117 15q117 0 175.5 -49t58.5 -167v-93q0 -115 -132 -115zM234 534q-21 0 -35 12.5t-14 33.5
q0 20 14 33t35 13t35 -13t14 -33q0 -21 -14 -33.5t-35 -12.5z" />
    <glyph glyph-name="uniFEAC" unicode="&#x630;" horiz-adv-x="580" arabic-form="final" 
d="M580 0h-520q-20 0 -20 20v42q0 19 20 19h334v118q0 79 -35.5 111.5t-125.5 32.5q-40 0 -94 -6q-8 -1 -14 -1q-20 0 -20 17v37q0 14 15 19q52 15 117 15q117 0 175.5 -49t58.5 -167v-127h109v-81zM251 534q-21 0 -35 12.5t-14 33.5q0 20 14 33t35 13t35 -13t14 -33
q0 -21 -14 -33.5t-35 -12.5z" />
    <glyph glyph-name="uniFEAD" unicode="&#x631;" horiz-adv-x="314" arabic-form="isolated" 
d="M163 121v265q0 20 19 20h38q20 0 20 -20v-279q0 -129 -40 -196.5t-149 -127.5q-16 -9 -24 8l-18 34q-7 13 12 24q56 32 84.5 62.5t43 80t14.5 129.5z" />
    <glyph glyph-name="uniFEAE" unicode="&#x631;" horiz-adv-x="332" arabic-form="final" 
d="M332 81v-81h-101q-13 -73 -54 -121.5t-126 -95.5q-16 -9 -24 8l-18 34q-7 13 12 24q56 32 84.5 62.5t43 80t14.5 129.5v265q0 20 19 20h38q20 0 20 -20v-305h92z" />
    <glyph glyph-name="uniFEAF" unicode="&#x632;" horiz-adv-x="314" arabic-form="isolated" 
d="M163 121v265q0 20 19 20h38q20 0 20 -20v-279q0 -129 -40 -196.5t-149 -127.5q-16 -9 -24 8l-18 34q-7 13 12 24q56 32 84.5 62.5t43 80t14.5 129.5zM202 526q-21 0 -35 12.5t-14 33.5q0 20 14 33t35 13t35 -13t14 -33q0 -21 -14 -33.5t-35 -12.5z" />
    <glyph glyph-name="uniFEB0" unicode="&#x632;" horiz-adv-x="332" arabic-form="final" 
d="M332 81v-81h-101q-13 -73 -54 -121.5t-126 -95.5q-16 -9 -24 8l-18 34q-7 13 12 24q56 32 84.5 62.5t43 80t14.5 129.5v265q0 20 19 20h38q20 0 20 -20v-305h92zM202 526q-21 0 -35 12.5t-14 33.5q0 20 14 33t35 13t35 -13t14 -33q0 -21 -14 -33.5t-35 -12.5z" />
    <glyph glyph-name="uniFEB1" unicode="&#x633;" horiz-adv-x="1175" arabic-form="isolated" 
d="M1105 386v-249q0 -57 -37.5 -97t-109.5 -40q-86 0 -133 64q-36 -64 -125 -64q-70 0 -115 43v-6q0 -128 -69.5 -192.5t-199.5 -64.5q-128 0 -197 65t-69 186q0 85 36 157q10 20 26 13l35 -14q17 -7 9 -26q-27 -64 -27 -131q0 -81 47 -125t141 -44q97 0 144 44.5t47 137.5
v253q0 20 19 20h38q20 0 20 -20v-175q43 -40 99 -40q82 0 82 86v129q0 20 19 20h38q20 0 20 -20v-159q0 -11 -1 -16q44 -40 100 -40q86 0 86 86v219q0 20 19 20h38q20 0 20 -20z" />
    <glyph glyph-name="uniFEB2" unicode="&#x633;" horiz-adv-x="1212" arabic-form="final" 
d="M845 296v-159q0 -11 -1 -16q44 -40 98 -40q84 0 84 86v219q0 20 19 20h38q20 0 20 -20v-249q0 -11 -1 -16q37 -40 100 -40h10v-81h-10q-80 0 -119 63q-36 -63 -125 -63q-85 0 -132 64q-36 -64 -126 -64q-70 0 -115 43v-6q0 -128 -69.5 -192.5t-199.5 -64.5
q-128 0 -197 65t-69 186q0 85 36 157q10 20 26 13l35 -14q17 -7 9 -26q-27 -64 -27 -131q0 -81 47 -125t141 -44q97 0 144 44.5t47 137.5v253q0 20 19 20h38q20 0 20 -20v-175q43 -40 99 -40q84 0 84 86v129q0 20 19 20h38q20 0 20 -20z" />
    <glyph glyph-name="uniFEB3" unicode="&#x633;" horiz-adv-x="848" arabic-form="initial" 
d="M-10 81h106q87 0 87 86v129q0 20 19 20h38q20 0 20 -20v-159q0 -3 -0.5 -8t-0.5 -7q46 -41 100 -41q87 0 87 86v129q0 20 19 20h38q20 0 20 -20v-159q0 -3 -0.5 -8t-0.5 -8q41 -40 95 -40q84 0 84 86v219q0 20 19 20h38q20 0 20 -20v-249q0 -57 -36.5 -97t-108.5 -40
q-84 0 -129 65q-38 -65 -129 -65q-88 0 -134 65q-38 -65 -129 -65h-122q-30 0 -30 40q0 41 30 41z" />
    <glyph glyph-name="uniFEB4" unicode="&#x633;" horiz-adv-x="877" arabic-form="medial" 
d="M-10 81h96q87 0 87 86v129q0 20 19 20h38q20 0 20 -20v-159q0 -3 -0.5 -8t-0.5 -7q46 -41 100 -41q84 0 84 86v129q0 20 19 20h38q20 0 20 -20v-159q0 -11 -1 -16q44 -40 98 -40q84 0 84 86v219q0 20 19 20h38q20 0 20 -20v-249q0 -11 -1 -16q37 -40 100 -40h10v-81h-10
q-80 0 -119 63q-36 -63 -125 -63q-85 0 -132 64q-36 -64 -126 -64q-88 0 -134 65q-38 -65 -129 -65h-112q-30 0 -30 40q0 41 30 41z" />
    <glyph glyph-name="uniFEB5" unicode="&#x634;" horiz-adv-x="1175" arabic-form="isolated" 
d="M1105 386v-249q0 -57 -37.5 -97t-109.5 -40q-86 0 -133 64q-36 -64 -125 -64q-70 0 -115 43v-6q0 -128 -69.5 -192.5t-199.5 -64.5q-128 0 -197 65t-69 186q0 85 36 157q10 20 26 13l35 -14q17 -7 9 -26q-27 -64 -27 -131q0 -81 47 -125t141 -44q97 0 144 44.5t47 137.5
v253q0 20 19 20h38q20 0 20 -20v-175q43 -40 99 -40q82 0 82 86v129q0 20 19 20h38q20 0 20 -20v-159q0 -11 -1 -16q44 -40 100 -40q86 0 86 86v219q0 20 19 20h38q20 0 20 -20zM872 526q-21 0 -35 12.5t-14 33.5q0 20 14 33t35 13t35 -13t14 -33q0 -21 -14 -33.5t-35 -12.5
zM742 526q-21 0 -35 12.5t-14 33.5q0 20 14 33t35 13t35 -13t14 -33q0 -21 -14 -33.5t-35 -12.5zM807 640q-21 0 -35 12.5t-14 33.5q0 20 14 33t35 13t35 -13t14 -33q0 -21 -14 -33.5t-35 -12.5z" />
    <glyph glyph-name="uniFEB6" unicode="&#x634;" horiz-adv-x="1212" arabic-form="final" 
d="M845 296v-159q0 -11 -1 -16q44 -40 98 -40q84 0 84 86v219q0 20 19 20h38q20 0 20 -20v-249q0 -11 -1 -16q37 -40 100 -40h10v-81h-10q-80 0 -119 63q-36 -63 -125 -63q-85 0 -132 64q-36 -64 -126 -64q-70 0 -115 43v-6q0 -128 -69.5 -192.5t-199.5 -64.5
q-128 0 -197 65t-69 186q0 85 36 157q10 20 26 13l35 -14q17 -7 9 -26q-27 -64 -27 -131q0 -81 47 -125t141 -44q97 0 144 44.5t47 137.5v253q0 20 19 20h38q20 0 20 -20v-175q43 -40 99 -40q84 0 84 86v129q0 20 19 20h38q20 0 20 -20zM874 526q-21 0 -35 12.5t-14 33.5
q0 20 14 33t35 13t35 -13t14 -33q0 -21 -14 -33.5t-35 -12.5zM744 526q-21 0 -35 12.5t-14 33.5q0 20 14 33t35 13t35 -13t14 -33q0 -21 -14 -33.5t-35 -12.5zM809 640q-21 0 -35 12.5t-14 33.5q0 20 14 33t35 13t35 -13t14 -33q0 -21 -14 -33.5t-35 -12.5z" />
    <glyph glyph-name="uniFEB7" unicode="&#x634;" horiz-adv-x="848" arabic-form="initial" 
d="M-10 81h106q87 0 87 86v129q0 20 19 20h38q20 0 20 -20v-159q0 -3 -0.5 -8t-0.5 -7q46 -41 100 -41q87 0 87 86v129q0 20 19 20h38q20 0 20 -20v-159q0 -3 -0.5 -8t-0.5 -8q41 -40 95 -40q84 0 84 86v219q0 20 19 20h38q20 0 20 -20v-249q0 -57 -36.5 -97t-108.5 -40
q-84 0 -129 65q-38 -65 -129 -65q-88 0 -134 65q-38 -65 -129 -65h-122q-30 0 -30 40q0 41 30 41zM554 526q-21 0 -35 12.5t-14 33.5q0 20 14 33t35 13t35 -13t14 -33q0 -21 -14 -33.5t-35 -12.5zM424 526q-21 0 -35 12.5t-14 33.5q0 20 14 33t35 13t35 -13t14 -33
q0 -21 -14 -33.5t-35 -12.5zM489 640q-21 0 -35 12.5t-14 33.5q0 20 14 33t35 13t35 -13t14 -33q0 -21 -14 -33.5t-35 -12.5z" />
    <glyph glyph-name="uniFEB8" unicode="&#x634;" horiz-adv-x="877" arabic-form="medial" 
d="M-10 81h96q87 0 87 86v129q0 20 19 20h38q20 0 20 -20v-159q0 -3 -0.5 -8t-0.5 -7q46 -41 100 -41q84 0 84 86v129q0 20 19 20h38q20 0 20 -20v-159q0 -11 -1 -16q44 -40 98 -40q84 0 84 86v219q0 20 19 20h38q20 0 20 -20v-249q0 -11 -1 -16q37 -40 100 -40h10v-81h-10
q-80 0 -119 63q-36 -63 -125 -63q-85 0 -132 64q-36 -64 -126 -64q-88 0 -134 65q-38 -65 -129 -65h-112q-30 0 -30 40q0 41 30 41zM541 526q-21 0 -35 12.5t-14 33.5q0 20 14 33t35 13t35 -13t14 -33q0 -21 -14 -33.5t-35 -12.5zM411 526q-21 0 -35 12.5t-14 33.5
q0 20 14 33t35 13t35 -13t14 -33q0 -21 -14 -33.5t-35 -12.5zM476 640q-21 0 -35 12.5t-14 33.5q0 20 14 33t35 13t35 -13t14 -33q0 -21 -14 -33.5t-35 -12.5z" />
    <glyph glyph-name="uniFEB9" unicode="&#x635;" horiz-adv-x="1141" arabic-form="isolated" 
d="M881 0h-298q-10 -110 -78.5 -165t-188.5 -55q-128 0 -197 65t-69 186q0 85 36 157q10 20 26 13l35 -14q17 -7 9 -26q-27 -64 -27 -131q0 -81 47 -125t141 -44q97 0 144 44.5t47 137.5v343q0 20 19 20h38q20 0 20 -20v-169q57 91 131 149t161 58q96 0 152 -68t56 -186
q0 -91 -48.5 -130.5t-155.5 -39.5zM875 343q-151 0 -292 -262h321q57 0 79.5 24.5t22.5 79.5q0 72 -34 115t-97 43z" />
    <glyph glyph-name="uniFEBA" unicode="&#x635;" horiz-adv-x="1165" arabic-form="final" 
d="M585 386v-169q57 91 131 149t161 58q96 0 152 -68t56 -186v-89h80v-81h-582q-10 -110 -78.5 -165t-188.5 -55q-128 0 -197 65t-69 186q0 85 36 157q10 20 26 13l35 -14q17 -7 9 -26q-27 -64 -27 -131q0 -81 47 -125t141 -44q97 0 144 44.5t47 137.5v343q0 20 19 20h38
q20 0 20 -20zM1008 81v78q0 184 -133 184q-151 0 -292 -262h425z" />
    <glyph glyph-name="uniFEBB" unicode="&#x635;" horiz-adv-x="721" arabic-form="initial" 
d="M-10 81h98v305q0 20 19 20h38q20 0 20 -20v-169q57 91 131 149t161 58q96 0 152 -68t56 -186q0 -91 -48.5 -130.5t-155.5 -39.5h-471q-30 0 -30 40q0 41 30 41zM455 343q-151 0 -292 -262h321q57 0 79.5 24.5t22.5 79.5q0 72 -34 115t-97 43z" />
    <glyph glyph-name="uniFEBC" unicode="&#x635;" horiz-adv-x="745" arabic-form="medial" 
d="M-10 81h98v305q0 20 19 20h38q20 0 20 -20v-169q57 91 131 149t161 58q96 0 152 -68t56 -186v-89h80v-81h-755q-30 0 -30 40q0 41 30 41zM588 81v78q0 184 -133 184q-151 0 -292 -262h425z" />
    <glyph glyph-name="uniFEBD" unicode="&#x636;" horiz-adv-x="1141" arabic-form="isolated" 
d="M881 0h-298q-10 -110 -78.5 -165t-188.5 -55q-128 0 -197 65t-69 186q0 85 36 157q10 20 26 13l35 -14q17 -7 9 -26q-27 -64 -27 -131q0 -81 47 -125t141 -44q97 0 144 44.5t47 137.5v343q0 20 19 20h38q20 0 20 -20v-169q57 91 131 149t161 58q96 0 152 -68t56 -186
q0 -91 -48.5 -130.5t-155.5 -39.5zM875 343q-151 0 -292 -262h321q57 0 79.5 24.5t22.5 79.5q0 72 -34 115t-97 43zM851 534q-21 0 -35 12.5t-14 33.5q0 20 14 33t35 13t35 -13t14 -33q0 -21 -14 -33.5t-35 -12.5z" />
    <glyph glyph-name="uniFEBE" unicode="&#x636;" horiz-adv-x="1165" arabic-form="final" 
d="M585 386v-169q57 91 131 149t161 58q96 0 152 -68t56 -186v-89h80v-81h-582q-10 -110 -78.5 -165t-188.5 -55q-128 0 -197 65t-69 186q0 85 36 157q10 20 26 13l35 -14q17 -7 9 -26q-27 -64 -27 -131q0 -81 47 -125t141 -44q97 0 144 44.5t47 137.5v343q0 20 19 20h38
q20 0 20 -20zM1008 81v78q0 184 -133 184q-151 0 -292 -262h425zM859 534q-21 0 -35 12.5t-14 33.5q0 20 14 33t35 13t35 -13t14 -33q0 -21 -14 -33.5t-35 -12.5z" />
    <glyph glyph-name="uniFEBF" unicode="&#x636;" horiz-adv-x="721" arabic-form="initial" 
d="M-10 81h98v305q0 20 19 20h38q20 0 20 -20v-169q57 91 131 149t161 58q96 0 152 -68t56 -186q0 -91 -48.5 -130.5t-155.5 -39.5h-471q-30 0 -30 40q0 41 30 41zM455 343q-151 0 -292 -262h321q57 0 79.5 24.5t22.5 79.5q0 72 -34 115t-97 43zM445 534q-21 0 -35 12.5
t-14 33.5q0 20 14 33t35 13t35 -13t14 -33q0 -21 -14 -33.5t-35 -12.5z" />
    <glyph glyph-name="uniFEC0" unicode="&#x636;" horiz-adv-x="745" arabic-form="medial" 
d="M-10 81h98v305q0 20 19 20h38q20 0 20 -20v-169q57 91 131 149t161 58q96 0 152 -68t56 -186v-89h80v-81h-755q-30 0 -30 40q0 41 30 41zM588 81v78q0 184 -133 184q-151 0 -292 -262h425zM435 534q-21 0 -35 12.5t-14 33.5q0 20 14 33t35 13t35 -13t14 -33
q0 -21 -14 -33.5t-35 -12.5z" />
    <glyph glyph-name="uniFEC1" unicode="&#x637;" horiz-adv-x="799" arabic-form="isolated" 
d="M539 0h-479q-20 0 -20 20v42q0 19 20 19h106v602q0 18 14 21l44 7q19 3 19 -17v-477q57 91 131 149t161 58q96 0 152 -68t56 -186q0 -91 -48.5 -130.5t-155.5 -39.5zM533 343q-151 0 -292 -262h321q57 0 79.5 24.5t22.5 79.5q0 72 -34 115t-97 43z" />
    <glyph glyph-name="uniFEC2" unicode="&#x637;" horiz-adv-x="823" arabic-form="final" 
d="M743 170v-89h80v-81h-763q-20 0 -20 20v42q0 19 20 19h106v602q0 18 14 21l44 7q19 3 19 -17v-477q57 91 131 149t161 58q96 0 152 -68t56 -186zM666 81v78q0 184 -133 184q-151 0 -292 -262h425z" />
    <glyph glyph-name="uniFEC3" unicode="&#x637;" horiz-adv-x="721" arabic-form="initial" 
d="M-10 81h98v602q0 18 14 21l44 7q19 3 19 -17v-477q57 91 131 149t161 58q96 0 152 -68t56 -186q0 -91 -48.5 -130.5t-155.5 -39.5h-471q-30 0 -30 40q0 41 30 41zM455 343q-151 0 -292 -262h321q57 0 79.5 24.5t22.5 79.5q0 72 -34 115t-97 43z" />
    <glyph glyph-name="uniFEC4" unicode="&#x637;" horiz-adv-x="745" arabic-form="medial" 
d="M-10 81h98v602q0 18 14 21l44 7q19 3 19 -17v-477q57 91 131 149t161 58q96 0 152 -68t56 -186v-89h80v-81h-755q-30 0 -30 40q0 41 30 41zM588 81v78q0 184 -133 184q-151 0 -292 -262h425z" />
    <glyph glyph-name="uniFEC5" unicode="&#x638;" horiz-adv-x="799" arabic-form="isolated" 
d="M539 0h-479q-20 0 -20 20v42q0 19 20 19h106v602q0 18 14 21l44 7q19 3 19 -17v-477q57 91 131 149t161 58q96 0 152 -68t56 -186q0 -91 -48.5 -130.5t-155.5 -39.5zM533 343q-151 0 -292 -262h321q57 0 79.5 24.5t22.5 79.5q0 72 -34 115t-97 43zM520 534
q-21 0 -35 12.5t-14 33.5q0 20 14 33t35 13t35 -13t14 -33q0 -21 -14 -33.5t-35 -12.5z" />
    <glyph glyph-name="uniFEC6" unicode="&#x638;" horiz-adv-x="823" arabic-form="final" 
d="M743 170v-89h80v-81h-763q-20 0 -20 20v42q0 19 20 19h106v602q0 18 14 21l44 7q19 3 19 -17v-477q57 91 131 149t161 58q96 0 152 -68t56 -186zM666 81v78q0 184 -133 184q-151 0 -292 -262h425zM520 534q-21 0 -35 12.5t-14 33.5q0 20 14 33t35 13t35 -13t14 -33
q0 -21 -14 -33.5t-35 -12.5z" />
    <glyph glyph-name="uniFEC7" unicode="&#x638;" horiz-adv-x="721" arabic-form="initial" 
d="M-10 81h98v602q0 18 14 21l44 7q19 3 19 -17v-477q57 91 131 149t161 58q96 0 152 -68t56 -186q0 -91 -48.5 -130.5t-155.5 -39.5h-471q-30 0 -30 40q0 41 30 41zM455 343q-151 0 -292 -262h321q57 0 79.5 24.5t22.5 79.5q0 72 -34 115t-97 43zM442 534q-21 0 -35 12.5
t-14 33.5q0 20 14 33t35 13t35 -13t14 -33q0 -21 -14 -33.5t-35 -12.5z" />
    <glyph glyph-name="uniFEC8" unicode="&#x638;" horiz-adv-x="745" arabic-form="medial" 
d="M-10 81h98v602q0 18 14 21l44 7q19 3 19 -17v-477q57 91 131 149t161 58q96 0 152 -68t56 -186v-89h80v-81h-755q-30 0 -30 40q0 41 30 41zM588 81v78q0 184 -133 184q-151 0 -292 -262h425zM442 534q-21 0 -35 12.5t-14 33.5q0 20 14 33t35 13t35 -13t14 -33
q0 -21 -14 -33.5t-35 -12.5z" />
    <glyph glyph-name="uniFEC9" unicode="&#x639;" horiz-adv-x="543" arabic-form="isolated" 
d="M264 81h219q20 0 20 -19v-42q0 -20 -20 -20h-197q-86 0 -126.5 -22.5t-40.5 -78.5q0 -108 177 -108q75 0 157 24q13 3 17 1t7 -10l14 -37q6 -18 -14 -27q-71 -32 -186 -32q-119 0 -185 47.5t-66 141.5q0 141 145 172q-77 78 -77 173q0 87 54.5 133.5t133.5 46.5
q78 0 139 -39q13 -9 8 -20l-18 -39q-6 -15 -23 -7q-54 24 -101 24q-58 0 -86 -29.5t-28 -76.5q0 -80 77 -156z" />
    <glyph glyph-name="uniFECA" unicode="&#x639;" horiz-adv-x="551" arabic-form="final" 
d="M91 304q-13 5 -9 22l11 55q3 13 16 16q128 29 208 29q179 0 179 -114q0 -50 -30.5 -94.5t-108.5 -100.5q51 -36 174 -36h20v-81h-20q-159 0 -239 73q-100 -67 -136.5 -105t-36.5 -81q0 -45 44 -70t113 -26q82 0 163 24q13 3 17 1t7 -10l14 -37q6 -18 -14 -27
q-72 -32 -176 -32q-68 0 -121 15.5t-89.5 57t-36.5 104.5q0 66 49 120.5t154 123.5q-5 6 -13 20q-51 85 -74.5 111t-64.5 42zM417 293q0 52 -96 52q-71 0 -138 -15q29 -20 52 -49t57 -85q1 -2 6 -10.5t8 -12.5q62 43 86.5 70t24.5 50z" />
    <glyph glyph-name="uniFECB" unicode="&#x639;" horiz-adv-x="506" arabic-form="initial" 
d="M-10 81h158q-67 76 -67 163t54.5 133.5t133.5 46.5q77 0 139 -39q13 -9 8 -20l-18 -39q-6 -15 -23 -7q-54 24 -101 24q-58 0 -86 -29.5t-28 -76.5q0 -80 77 -156h219q20 0 20 -19v-42q0 -20 -20 -20h-466q-30 0 -30 40q0 41 30 41z" />
    <glyph glyph-name="uniFECC" unicode="&#x639;" horiz-adv-x="556" arabic-form="medial" 
d="M-10 81h20q131 0 239 48q-10 14 -14 22q-51 85 -74.5 111t-64.5 42q-13 5 -9 22l11 55q3 13 16 16q128 29 208 29q179 0 179 -114q0 -47 -34.5 -100.5t-95.5 -99.5q51 -31 165 -31h20v-81h-20q-157 0 -235 68q-131 -68 -284 -68h-27q-30 0 -30 40q0 41 30 41zM422 293
q0 52 -96 52q-70 0 -138 -15q29 -20 52 -49t57 -85q12 -22 19 -31q49 32 77.5 67t28.5 61z" />
    <glyph glyph-name="uniFECD" unicode="&#x63a;" horiz-adv-x="543" arabic-form="isolated" 
d="M264 81h219q20 0 20 -19v-42q0 -20 -20 -20h-197q-86 0 -126.5 -22.5t-40.5 -78.5q0 -108 177 -108q75 0 157 24q13 3 17 1t7 -10l14 -37q6 -18 -14 -27q-71 -32 -186 -32q-119 0 -185 47.5t-66 141.5q0 141 145 172q-77 78 -77 173q0 87 54.5 133.5t133.5 46.5
q78 0 139 -39q13 -9 8 -20l-18 -39q-6 -15 -23 -7q-54 24 -101 24q-58 0 -86 -29.5t-28 -76.5q0 -80 77 -156zM284 534q-21 0 -35 12.5t-14 33.5q0 20 14 33t35 13t35 -13t14 -33q0 -21 -14 -33.5t-35 -12.5z" />
    <glyph glyph-name="uniFECE" unicode="&#x63a;" horiz-adv-x="551" arabic-form="final" 
d="M91 304q-13 5 -9 22l11 55q3 13 16 16q128 29 208 29q179 0 179 -114q0 -50 -30.5 -94.5t-108.5 -100.5q51 -36 174 -36h20v-81h-20q-159 0 -239 73q-100 -67 -136.5 -105t-36.5 -81q0 -45 44 -70t113 -26q82 0 163 24q13 3 17 1t7 -10l14 -37q6 -18 -14 -27
q-72 -32 -176 -32q-68 0 -121 15.5t-89.5 57t-36.5 104.5q0 66 49 120.5t154 123.5q-5 6 -13 20q-51 85 -74.5 111t-64.5 42zM417 293q0 52 -96 52q-71 0 -138 -15q29 -20 52 -49t57 -85q1 -2 6 -10.5t8 -12.5q62 43 86.5 70t24.5 50zM293 534q-21 0 -35 12.5t-14 33.5
q0 20 14 33t35 13t35 -13t14 -33q0 -21 -14 -33.5t-35 -12.5z" />
    <glyph glyph-name="uniFECF" unicode="&#x63a;" horiz-adv-x="506" arabic-form="initial" 
d="M-10 81h158q-67 76 -67 163t54.5 133.5t133.5 46.5q77 0 139 -39q13 -9 8 -20l-18 -39q-6 -15 -23 -7q-54 24 -101 24q-58 0 -86 -29.5t-28 -76.5q0 -80 77 -156h219q20 0 20 -19v-42q0 -20 -20 -20h-466q-30 0 -30 40q0 41 30 41zM265 534q-21 0 -35 12.5t-14 33.5
q0 20 14 33t35 13t35 -13t14 -33q0 -21 -14 -33.5t-35 -12.5z" />
    <glyph glyph-name="uniFED0" unicode="&#x63a;" horiz-adv-x="556" arabic-form="medial" 
d="M-10 81h20q131 0 239 48q-10 14 -14 22q-51 85 -74.5 111t-64.5 42q-13 5 -9 22l11 55q3 13 16 16q128 29 208 29q179 0 179 -114q0 -47 -34.5 -100.5t-95.5 -99.5q51 -31 165 -31h20v-81h-20q-157 0 -235 68q-131 -68 -284 -68h-27q-30 0 -30 40q0 41 30 41zM422 293
q0 52 -96 52q-70 0 -138 -15q29 -20 52 -49t57 -85q12 -22 19 -31q49 32 77.5 67t28.5 61zM302 534q-21 0 -35 12.5t-14 33.5q0 20 14 33t35 13t35 -13t14 -33q0 -21 -14 -33.5t-35 -12.5z" />
    <glyph glyph-name="uniFED1" unicode="&#x641;" horiz-adv-x="998" arabic-form="isolated" 
d="M576 214q0 91 49.5 141.5t133.5 50.5q86 0 134.5 -52t48.5 -148q0 -102 -53 -154t-151 -52h-456q-113 0 -172.5 54.5t-59.5 152.5v115q0 20 20 20h38q19 0 19 -20v-65q0 -98 38 -137t140 -39h312q-41 55 -41 133zM655 203q0 -73 41 -122h54q52 0 82.5 30t30.5 92
q0 124 -104 124t-104 -124zM758 516q-21 0 -35 12.5t-14 33.5q0 20 14 33t35 13t35 -13t14 -33q0 -21 -14 -33.5t-35 -12.5z" />
    <glyph glyph-name="uniFED2" unicode="&#x641;" horiz-adv-x="997" arabic-form="final" 
d="M863 259q0 38 -30 62.5t-83 24.5t-83 -24.5t-30 -62.5q0 -35 28 -75.5t85 -67.5q57 27 85 67.5t28 75.5zM942 264q0 -45 -26 -92t-73 -84q39 -7 95 -7h59v-81h-59q-102 0 -188 35q-86 -35 -188 -35h-280q-113 0 -172.5 54.5t-59.5 152.5v115q0 20 20 20h38q19 0 19 -20
v-65q0 -98 38 -137t140 -39h257q56 0 95 7q-47 37 -73 84t-26 92q0 68 52 115t140 47t140 -47t52 -115zM750 534q-21 0 -35 12.5t-14 33.5q0 20 14 33t35 13t35 -13t14 -33q0 -21 -14 -33.5t-35 -12.5z" />
    <glyph glyph-name="uniFED3" unicode="&#x641;" horiz-adv-x="497" arabic-form="initial" 
d="M-10 81h126q-41 55 -41 133q0 91 49.5 141.5t133.5 50.5q86 0 134.5 -52t48.5 -148q0 -102 -53 -154t-151 -52h-247q-30 0 -30 40q0 41 30 41zM154 203q0 -73 41 -122h54q52 0 82.5 30t30.5 92q0 124 -104 124t-104 -124zM257 516q-21 0 -35 12.5t-14 33.5q0 20 14 33
t35 13t35 -13t14 -33q0 -21 -14 -33.5t-35 -12.5z" />
    <glyph glyph-name="uniFED4" unicode="&#x641;" horiz-adv-x="495" arabic-form="medial" 
d="M-10 81h70q56 0 95 7q-47 37 -73 84t-26 92q0 68 52 115t140 47t140 -47t52 -115q0 -45 -26 -92t-73 -84q39 -7 95 -7h59v-81h-59q-102 0 -188 35q-86 -35 -188 -35h-70q-30 0 -30 40q0 41 30 41zM361 259q0 38 -30 62.5t-83 24.5t-83 -24.5t-30 -62.5q0 -35 28 -75.5
t85 -67.5q57 27 85 67.5t28 75.5zM248 534q-21 0 -35 12.5t-14 33.5q0 20 14 33t35 13t35 -13t14 -33q0 -21 -14 -33.5t-35 -12.5z" />
    <glyph glyph-name="uniFED5" unicode="&#x642;" horiz-adv-x="818" arabic-form="isolated" 
d="M164 181q-35 -70 -35 -142q0 -178 260 -178q141 0 209.5 46.5t68.5 123.5v2q-47 -33 -110 -33q-80 0 -128.5 55t-48.5 151q0 91 49.5 145.5t134.5 54.5q83 0 131.5 -48t48.5 -142v-178q0 -128 -92 -193t-262 -65q-55 0 -103 7.5t-92.5 26t-76 46.5t-50 72t-18.5 100
q0 88 45 177q11 21 28 13l32 -15q18 -9 9 -26zM459 207q0 -126 110 -126q53 0 98 32v103q0 109 -100 109q-52 0 -80 -32t-28 -86zM639 516q-21 0 -35 12.5t-14 33.5q0 20 14 33t35 13t35 -13t14 -33q0 -21 -14 -33.5t-35 -12.5zM509 516q-21 0 -35 12.5t-14 33.5q0 20 14 33
t35 13t35 -13t14 -33q0 -21 -14 -33.5t-35 -12.5z" />
    <glyph glyph-name="uniFED6" unicode="&#x642;" horiz-adv-x="843" arabic-form="final" 
d="M389 -139q126 0 194 37.5t81 101.5h-95q-91 0 -140 51t-49 155q0 91 49.5 145.5t134.5 54.5q83 0 131.5 -48t48.5 -142v-135h99v-81h-101q-14 -109 -105 -164.5t-247 -55.5q-55 0 -103 7.5t-92.5 26t-76 46.5t-50 72t-18.5 100q0 88 45 177q11 21 28 13l32 -15
q18 -9 9 -26q-35 -70 -35 -142q0 -178 260 -178zM588 81h79v135q0 109 -100 109q-52 0 -80 -32t-28 -86q0 -73 29.5 -99.5t99.5 -26.5zM639 516q-21 0 -35 12.5t-14 33.5q0 20 14 33t35 13t35 -13t14 -33q0 -21 -14 -33.5t-35 -12.5zM509 516q-21 0 -35 12.5t-14 33.5
q0 20 14 33t35 13t35 -13t14 -33q0 -21 -14 -33.5t-35 -12.5z" />
    <glyph glyph-name="uniFED7" unicode="&#x642;" horiz-adv-x="497" arabic-form="initial" 
d="M-10 81h126q-41 55 -41 133q0 91 49.5 141.5t133.5 50.5q86 0 134.5 -52t48.5 -148q0 -102 -53 -154t-151 -52h-247q-30 0 -30 40q0 41 30 41zM154 203q0 -73 41 -122h54q52 0 82.5 30t30.5 92q0 124 -104 124t-104 -124zM322 516q-21 0 -35 12.5t-14 33.5q0 20 14 33
t35 13t35 -13t14 -33q0 -21 -14 -33.5t-35 -12.5zM192 516q-21 0 -35 12.5t-14 33.5q0 20 14 33t35 13t35 -13t14 -33q0 -21 -14 -33.5t-35 -12.5z" />
    <glyph glyph-name="uniFED8" unicode="&#x642;" horiz-adv-x="495" arabic-form="medial" 
d="M-10 81h70q56 0 95 7q-47 37 -73 84t-26 92q0 68 52 115t140 47t140 -47t52 -115q0 -45 -26 -92t-73 -84q39 -7 95 -7h59v-81h-59q-102 0 -188 35q-86 -35 -188 -35h-70q-30 0 -30 40q0 41 30 41zM361 259q0 38 -30 62.5t-83 24.5t-83 -24.5t-30 -62.5q0 -35 28 -75.5
t85 -67.5q57 27 85 67.5t28 75.5zM312 534q-21 0 -35 12.5t-14 33.5q0 20 14 33t35 13t35 -13t14 -33q0 -21 -14 -33.5t-35 -12.5zM182 534q-21 0 -35 12.5t-14 33.5q0 20 14 33t35 13t35 -13t14 -33q0 -21 -14 -33.5t-35 -12.5z" />
    <glyph glyph-name="uniFED9" unicode="&#x643;" horiz-adv-x="896" arabic-form="isolated" 
d="M305 81h373q41 0 54 14.5t13 57.5v530q0 18 14 21l44 7q19 3 19 -17v-579q0 -115 -132 -115h-408q-113 0 -172.5 54.5t-59.5 152.5v115q0 20 20 20h38q19 0 19 -20v-65q0 -98 38 -137t140 -39zM342 371h37q-19 28 -19 61q0 37 26 59t64 22q39 0 70 -18q9 -6 5 -14l-6 -20
q-5 -9 -13 -4q-24 12 -51 12q-20 0 -33.5 -12.5t-13.5 -33.5q0 -26 19 -52h101q9 0 9 -10v-23q0 -11 -9 -11h-186q-9 0 -9 11v23q0 10 9 10z" />
    <glyph glyph-name="uniFEDA" unicode="&#x643;" horiz-adv-x="931" arabic-form="final" 
d="M305 81h373q41 0 54 14.5t13 57.5v530q0 18 14 21l44 7q19 3 19 -17v-574q36 -39 99 -39h10v-81h-10q-72 0 -112 54q-29 -54 -119 -54h-408q-113 0 -172.5 54.5t-59.5 152.5v115q0 20 20 20h38q19 0 19 -20v-65q0 -98 38 -137t140 -39zM342 371h37q-19 28 -19 61
q0 37 26 59t64 22q39 0 70 -18q9 -6 5 -14l-6 -20q-5 -9 -13 -4q-24 12 -51 12q-20 0 -33.5 -12.5t-13.5 -33.5q0 -26 19 -52h101q9 0 9 -10v-23q0 -11 -9 -11h-186q-9 0 -9 11v23q0 10 9 10z" />
    <glyph glyph-name="uniFEDB" unicode="&#x643;" horiz-adv-x="442" arabic-form="initial" 
d="M-10 81h205q108 0 108 70q0 53 -79.5 109.5t-230.5 101.5q-18 5 -18 18v41q0 11 12 22l294 262q14 13 24 2l28 -32q11 -13 0 -24l-266 -237q159 -57 237 -123.5t78 -151.5q0 -139 -193 -139h-199q-30 0 -30 40q0 41 30 41z" />
    <glyph glyph-name="uniFEDC" unicode="&#x643;" horiz-adv-x="491" arabic-form="medial" 
d="M-10 81h205q108 0 108 70q0 53 -79.5 109.5t-230.5 101.5q-18 5 -18 18v41q0 11 12 22l294 262q14 13 24 2l28 -32q11 -13 0 -24l-266 -237q159 -57 237 -123.5t78 -151.5q0 -9 -2 -27q34 -31 91 -31h20v-81h-20q-74 0 -115 57q-45 -57 -167 -57h-199q-30 0 -30 40
q0 41 30 41z" />
    <glyph glyph-name="uniFEDD" unicode="&#x644;" horiz-adv-x="659" arabic-form="isolated" 
d="M508 43v642q0 16 12 19l48 7q17 3 17 -15v-659q0 -128 -69.5 -192.5t-199.5 -64.5q-128 0 -197 65t-69 186q0 85 36 157q10 20 26 13l35 -14q17 -7 9 -26q-27 -64 -27 -131q0 -81 47 -125t141 -44q97 0 144 44.5t47 137.5z" />
    <glyph glyph-name="uniFEDE" unicode="&#x644;" horiz-adv-x="687" arabic-form="final" 
d="M508 43v640q0 18 14 21l44 7q19 3 19 -17v-613h102v-81h-104q-10 -110 -78.5 -165t-188.5 -55q-128 0 -197 65t-69 186q0 85 36 157q10 20 26 13l35 -14q17 -7 9 -26q-27 -64 -27 -131q0 -81 47 -125t141 -44q97 0 144 44.5t47 137.5z" />
    <glyph glyph-name="uniFEDF" unicode="&#x644;" horiz-adv-x="278" arabic-form="initial" 
d="M-10 81h67q43 0 56.5 15t13.5 60v527q0 18 14 21l44 7q19 3 19 -17v-580q0 -114 -131 -114h-83q-30 0 -30 40q0 41 30 41z" />
    <glyph glyph-name="uniFEE0" unicode="&#x644;" horiz-adv-x="321" arabic-form="medial" 
d="M-10 81h78q41 0 54 14.5t13 57.5v530q0 18 14 21l44 7q19 3 19 -17v-574q36 -39 99 -39h10v-81h-10q-72 0 -112 54q-29 -54 -119 -54h-90q-30 0 -30 40q0 41 30 41z" />
    <glyph glyph-name="uniFEE1" unicode="&#x645;" horiz-adv-x="583" arabic-form="isolated" 
d="M109 -84q0 -81 25 -182q5 -20 -16 -23l-37 -5q-12 -2 -16.5 2t-7.5 17q-27 123 -27 198q0 88 42 122t130 36q-41 55 -41 133q0 91 49.5 141.5t133.5 50.5q86 0 134.5 -52t48.5 -148q0 -102 -53 -154t-151 -52h-90q-77 0 -100.5 -17t-23.5 -67zM240 203q0 -73 41 -122h54
q52 0 82.5 30t30.5 92q0 124 -104 124t-104 -124z" />
    <glyph glyph-name="uniFEE2" unicode="&#x645;" horiz-adv-x="602" arabic-form="final" 
d="M527 206q0 -78 -42 -125h117v-81h-369q-77 0 -100.5 -17t-23.5 -67q0 -81 25 -182q5 -20 -16 -23l-37 -5q-12 -2 -16.5 2t-7.5 17q-27 123 -27 198q0 88 42 122t130 36q-41 55 -41 133q0 91 49.5 141.5t133.5 50.5q86 0 134.5 -52t48.5 -148zM240 203q0 -73 41 -122h54
q52 0 82.5 30t30.5 92q0 124 -104 124t-104 -124z" />
    <glyph glyph-name="uniFEE3" unicode="&#x645;" horiz-adv-x="497" arabic-form="initial" 
d="M-10 81h126q-41 55 -41 133q0 91 49.5 141.5t133.5 50.5q86 0 134.5 -52t48.5 -148q0 -102 -53 -154t-151 -52h-247q-30 0 -30 40q0 41 30 41zM154 203q0 -73 41 -122h54q52 0 82.5 30t30.5 92q0 124 -104 124t-104 -124z" />
    <glyph glyph-name="uniFEE4" unicode="&#x645;" horiz-adv-x="526" arabic-form="medial" 
d="M-10 81h92q-2 22 -2 35q0 91 49.5 141.5t133.5 50.5q86 0 134.5 -52t48.5 -148q0 -5 -0.5 -14t-0.5 -13h81v-81h-101q-47 -98 -183 -98h-72q-18 0 -29 18q-23 38 -39 80h-112q-30 0 -30 40q0 41 30 41zM159 105q0 -63 34 -122h61q52 0 82.5 30t30.5 92q0 124 -104 124
t-104 -124z" />
    <glyph glyph-name="uniFEE5" unicode="&#x646;" horiz-adv-x="661" arabic-form="isolated" 
d="M514 43v253q0 20 19 20h38q20 0 20 -20v-259q0 -128 -69.5 -192.5t-199.5 -64.5q-128 0 -197 65t-69 186q0 85 36 157q10 20 26 13l35 -14q17 -7 9 -26q-27 -64 -27 -131q0 -81 47 -125t141 -44q97 0 144 44.5t47 137.5zM352 395q-21 0 -35 12.5t-14 33.5q0 20 14 33
t35 13t35 -13t14 -33q0 -21 -14 -33.5t-35 -12.5z" />
    <glyph glyph-name="uniFEE6" unicode="&#x646;" horiz-adv-x="673" arabic-form="final" 
d="M514 43v253q0 20 19 20h38q20 0 20 -20v-215h82v-81h-84q-10 -110 -78.5 -165t-188.5 -55q-128 0 -197 65t-69 186q0 85 36 157q10 20 26 13l35 -14q17 -7 9 -26q-27 -64 -27 -131q0 -81 47 -125t141 -44q97 0 144 44.5t47 137.5zM352 395q-21 0 -35 12.5t-14 33.5
q0 20 14 33t35 13t35 -13t14 -33q0 -21 -14 -33.5t-35 -12.5z" />
    <glyph glyph-name="uniFEE7" unicode="&#x646;" horiz-adv-x="276" arabic-form="initial" 
d="M-10 81h68q41 0 54 14.5t13 57.5v233q0 20 19 20h38q20 0 20 -20v-271q0 -115 -132 -115h-80q-30 0 -30 40q0 41 30 41zM162 526q-21 0 -35 12.5t-14 33.5q0 20 14 33t35 13t35 -13t14 -33q0 -21 -14 -33.5t-35 -12.5z" />
    <glyph glyph-name="uniFEE8" unicode="&#x646;" horiz-adv-x="321" arabic-form="medial" 
d="M-10 81h78q41 0 54 14.5t13 57.5v233q0 20 19 20h38q20 0 20 -20v-266q36 -39 99 -39h10v-81h-10q-72 0 -112 54q-29 -54 -119 -54h-90q-30 0 -30 40q0 41 30 41zM170 526q-21 0 -35 12.5t-14 33.5q0 20 14 33t35 13t35 -13t14 -33q0 -21 -14 -33.5t-35 -12.5z" />
    <glyph glyph-name="uniFEE9" unicode="&#x647;" horiz-adv-x="759" arabic-form="isolated" 
d="M468 270q0 33 -35 58t-78 25q-36 0 -61 -22t-25 -56q0 -68 97 -133q49 27 75.5 61t26.5 67zM555 76q65 0 65 47q0 29 -25.5 70.5t-63.5 72.5v-1q1 -5 1 -10q0 -39 -23.5 -80.5t-64.5 -73.5q61 -25 111 -25zM221 436l20 39q7 14 21 10q183 -52 310 -158t127 -218
q0 -56 -34.5 -84t-92.5 -30q-99 -2 -207 58q-117 -53 -280 -53h-25q-20 0 -20 20v42q0 19 20 19h25q114 0 201 27q-86 78 -86 162q0 42 22.5 79t56.5 49l1 1l-44 15q-22 7 -15 22z" />
    <glyph glyph-name="uniFEEA" unicode="&#x647;" horiz-adv-x="495" arabic-form="final" 
d="M319 420v34q0 18 14 21l44 7q19 3 19 -17v-301q0 -45 20.5 -64t73.5 -19h5v-81h-18q-120 0 -150 75q-53 -25 -118 -25q-66 0 -112.5 31.5t-46.5 96.5q0 73 67.5 135.5t201.5 106.5zM319 150v196q-86 -28 -137 -70.5t-51 -88.5q0 -25 21.5 -40.5t64.5 -15.5q45 0 102 19z
" />
    <glyph glyph-name="uniFEEB" unicode="&#x647;" horiz-adv-x="688" arabic-form="initial" 
d="M-10 81h24q114 0 201 27q-86 78 -86 162q0 42 22.5 79t56.5 49l1 1l-44 15q-22 7 -15 22l20 39q7 14 21 10q183 -52 310 -158t127 -218q0 -54 -35 -84t-96 -30q-97 0 -203 58q-117 -53 -280 -53h-24q-30 0 -30 40q0 41 30 41zM397 270q0 33 -35 58t-78 25q-36 0 -61 -22
t-25 -56q0 -68 97 -133q49 27 75.5 61t26.5 67zM484 76q65 0 65 47q0 29 -25.5 70.5t-63.5 72.5v-1q1 -5 1 -10q0 -39 -23.5 -80.5t-64.5 -73.5q61 -25 111 -25z" />
    <glyph glyph-name="uniFEEC" unicode="&#x647;" horiz-adv-x="572" arabic-form="medial" 
d="M-10 81h24q50 0 104 10q15 153 77.5 243t151.5 90q58 0 98 -38.5t40 -102.5q0 -59 -39 -110t-112 -79v-1q77 -12 217 -12h21v-81h-21q-114 0 -185 23v-1q63 -28 96 -73.5t33 -92.5q0 -60 -42 -103t-108 -43q-89 0 -153.5 80t-76.5 220q-58 -10 -101 -10h-24q-30 0 -30 40
q0 41 30 41zM194 29q1 -100 45 -169t105 -69q31 0 51.5 20.5t20.5 52.5q0 47 -53.5 93t-168.5 72zM196 102q107 26 159.5 77t52.5 98q0 30 -17.5 48t-44.5 18q-49 0 -89 -59.5t-61 -181.5z" />
    <glyph glyph-name="uniFEED" unicode="&#x648;" horiz-adv-x="494" arabic-form="isolated" 
d="M160 -151q85 43 123.5 81t50.5 98q-46 -28 -101 -28q-80 0 -128.5 55t-48.5 151q0 91 49.5 145.5t134.5 54.5q83 0 131.5 -48t48.5 -142v-94q0 -133 -45.5 -204.5t-184.5 -134.5q-16 -7 -24 8l-18 34q-8 14 12 24zM343 216q0 109 -100 109q-52 0 -80 -32t-28 -86
q0 -126 110 -126q53 0 98 32v103z" />
    <glyph glyph-name="uniFEEE" unicode="&#x648;" horiz-adv-x="519" arabic-form="final" 
d="M160 -151q76 38 113.5 71.5t53.5 79.5h-82q-91 0 -140 51t-49 155q0 91 49.5 145.5t134.5 54.5q83 0 131.5 -48t48.5 -142v-94q0 -7 -0.5 -21t-0.5 -20h100v-81h-110q-17 -71 -66.5 -120.5t-152.5 -96.5q-16 -7 -24 8l-18 34q-8 14 12 24zM343 136v80q0 109 -100 109
q-52 0 -80 -32t-28 -86q0 -73 29.5 -99.5t99.5 -26.5h77q2 34 2 55z" />
    <glyph glyph-name="uniFEEF" unicode="&#x649;" horiz-adv-x="832" arabic-form="isolated" 
d="M389 -139q105 0 185.5 30t80.5 79q0 27 -27 49.5t-65 41t-76 40.5t-65 59.5t-27 86.5q0 91 59 139t146 48q89 0 166 -50q14 -9 8 -20l-18 -40q-7 -16 -23 -7q-67 37 -134 37q-56 0 -90.5 -27t-34.5 -80q0 -35 27 -61.5t65 -45.5t76 -39t65 -52.5t27 -75.5q0 -85 -95 -139
t-249 -54q-55 0 -103 7.5t-92.5 26t-76 46.5t-50 72t-18.5 100q0 88 45 177q11 21 28 13l32 -15q18 -9 9 -26q-35 -70 -35 -142q0 -178 260 -178z" />
    <glyph glyph-name="uniFEF0" unicode="&#x649;" horiz-adv-x="757" arabic-form="final" 
d="M533 47l-81 30q-16 6 -10 23l12 37q7 19 26 12l73 -27q112 -41 178 -41h26v-81h-39q19 -23 19 -50q0 -51 -51 -91t-129.5 -59.5t-166.5 -19.5q-55 0 -103 7.5t-92.5 26t-76 46.5t-50 72t-18.5 100q0 88 45 177q11 21 28 13l32 -15q18 -9 9 -26q-35 -70 -35 -142
q0 -178 260 -178q119 0 194 31.5t75 69.5q0 25 -30 43t-95 42z" />
    <glyph glyph-name="uniFEF1" unicode="&#x64a;" horiz-adv-x="832" arabic-form="isolated" 
d="M389 -139q105 0 185.5 30t80.5 79q0 27 -27 49.5t-65 41t-76 40.5t-65 59.5t-27 86.5q0 91 59 139t146 48q89 0 166 -50q14 -9 8 -20l-18 -40q-7 -16 -23 -7q-67 37 -134 37q-56 0 -90.5 -27t-34.5 -80q0 -35 27 -61.5t65 -45.5t76 -39t65 -52.5t27 -75.5q0 -85 -95 -139
t-249 -54q-55 0 -103 7.5t-92.5 26t-76 46.5t-50 72t-18.5 100q0 88 45 177q11 21 28 13l32 -15q18 -9 9 -26q-35 -70 -35 -142q0 -178 260 -178zM471 -422q-21 0 -35 12.5t-14 33.5q0 20 14 33t35 13t35 -13t14 -33q0 -21 -14 -33.5t-35 -12.5zM341 -422q-21 0 -35 12.5
t-14 33.5q0 20 14 33t35 13t35 -13t14 -33q0 -21 -14 -33.5t-35 -12.5z" />
    <glyph glyph-name="uniFEF2" unicode="&#x64a;" horiz-adv-x="757" arabic-form="final" 
d="M533 47l-81 30q-16 6 -10 23l12 37q7 19 26 12l73 -27q112 -41 178 -41h26v-81h-39q19 -23 19 -50q0 -51 -51 -91t-129.5 -59.5t-166.5 -19.5q-55 0 -103 7.5t-92.5 26t-76 46.5t-50 72t-18.5 100q0 88 45 177q11 21 28 13l32 -15q18 -9 9 -26q-35 -70 -35 -142
q0 -178 260 -178q119 0 194 31.5t75 69.5q0 25 -30 43t-95 42zM471 -422q-21 0 -35 12.5t-14 33.5q0 20 14 33t35 13t35 -13t14 -33q0 -21 -14 -33.5t-35 -12.5zM341 -422q-21 0 -35 12.5t-14 33.5q0 20 14 33t35 13t35 -13t14 -33q0 -21 -14 -33.5t-35 -12.5z" />
    <glyph glyph-name="uniFEF3" unicode="&#x64a;" horiz-adv-x="276" arabic-form="initial" 
d="M-10 81h68q41 0 54 14.5t13 57.5v233q0 20 19 20h38q20 0 20 -20v-271q0 -115 -132 -115h-80q-30 0 -30 40q0 41 30 41zM123 -212q-21 0 -35 12.5t-14 33.5q0 20 14 33t35 13t35 -13t14 -33q0 -21 -14 -33.5t-35 -12.5zM-7 -212q-21 0 -35 12.5t-14 33.5q0 20 14 33
t35 13t35 -13t14 -33q0 -21 -14 -33.5t-35 -12.5z" />
    <glyph glyph-name="uniFEF4" unicode="&#x64a;" horiz-adv-x="321" arabic-form="medial" 
d="M-10 81h78q41 0 54 14.5t13 57.5v233q0 20 19 20h38q20 0 20 -20v-266q36 -39 99 -39h10v-81h-10q-72 0 -112 54q-29 -54 -119 -54h-90q-30 0 -30 40q0 41 30 41zM133 -212q-21 0 -35 12.5t-14 33.5q0 20 14 33t35 13t35 -13t14 -33q0 -21 -14 -33.5t-35 -12.5zM3 -212
q-21 0 -35 12.5t-14 33.5q0 20 14 33t35 13t35 -13t14 -33q0 -21 -14 -33.5t-35 -12.5z" />
    <glyph glyph-name=".notdef" horiz-adv-x="535" 
d="M20 0v693h495v-693h-495zM268 391l168 253h-337zM297 347l169 -253v505zM99 50h337l-168 252zM70 599v-505l168 253z" />
    <glyph glyph-name=".null" 
 />
    <glyph glyph-name="nonmarkingreturn" horiz-adv-x="333" 
 />
    <glyph glyph-name="CR" horiz-adv-x="232" 
 />
    <glyph glyph-name="uni060C" unicode="&#x60c;" horiz-adv-x="323" 
d="M216 253q-56 -61 -56 -109q0 -20 21.5 -47t21.5 -47q0 -24 -18.5 -42t-44.5 -18q-30 0 -49 24t-19 65q0 51 32 110t80 97q15 12 25 -1l9 -11q8 -10 -2 -21z" />
    <glyph glyph-name="uni0615" unicode="&#x615;" 
d="M-36 752v-113q39 32 75 32q70 0 70 -76q0 -41 -16.5 -56.5t-62.5 -15.5h-126q-10 0 -10 10v19q0 9 10 9h20v184q0 9 7 10l23 5q10 1 10 -8zM-36 561h72q19 0 26 7t7 27q0 38 -38 38q-29 0 -67 -39v-33z" />
    <glyph glyph-name="uni061B" unicode="&#x61b;" horiz-adv-x="323" 
d="M200 48q0 -26 -18.5 -42t-41.5 -16t-41.5 16t-18.5 42t18.5 42t41.5 16t41.5 -16t18.5 -42zM216 511q-56 -61 -56 -109q0 -20 21.5 -47t21.5 -47q0 -24 -18.5 -42t-44.5 -18q-30 0 -49 24t-19 65q0 51 32 110t80 97q15 12 25 -1l9 -11q8 -10 -2 -21z" />
    <glyph glyph-name="uni061F" unicode="&#x61f;" horiz-adv-x="495" 
d="M200 280l-74 77q-54 57 -54 127q0 67 50.5 113t132.5 46q72 0 133 -34q10 -6 6 -17l-13 -33q-4 -11 -17 -6q-50 25 -100 25t-81.5 -27t-31.5 -69q0 -53 48 -102l74 -77q52 -54 52 -113v-10q0 -21 -19 -21h-33q-16 0 -16 16q0 45 -57 105zM281 99q23 0 40 -14.5t17 -39.5
q0 -26 -17 -40.5t-41 -14.5q-23 0 -40 14.5t-17 39.5q0 26 17 40.5t41 14.5z" />
    <glyph glyph-name="uni0621" unicode="&#x621;" horiz-adv-x="513" 
d="M259 73h176q18 0 18 -17v-38q0 -18 -18 -18h-357q-18 0 -18 18v38q0 17 18 17h101q-49 58 -49 123q0 62 41.5 101t108.5 39q62 0 111 -32q15 -10 9 -23l-14 -30q-9 -20 -25 -12q-42 21 -77 21q-38 0 -57.5 -20t-19.5 -53q0 -61 52 -114z" />
    <glyph glyph-name="uni0622" unicode="&#x622;" horiz-adv-x="225" 
d="M74 21v662q0 18 14 21l44 7q19 3 19 -17v-673q0 -21 -19 -21h-39q-19 0 -19 21zM177 800q-27 0 -66 18q-43 20 -64 20q-22 0 -39 -21q-8 -8 -13 -1l-14 16q-6 8 0 15q29 41 68 41q31 0 67 -19q42 -19 60 -19q22 0 39 21q8 8 13 1l14 -16q6 -8 0 -15q-29 -41 -65 -41z" />
    <glyph glyph-name="uni0623" unicode="&#x623;" horiz-adv-x="225" 
d="M74 21v662q0 18 14 21l44 7q19 3 19 -17v-673q0 -21 -19 -21h-39q-19 0 -19 21zM19 844h37q-19 28 -19 61q0 37 26 59t64 22q39 0 70 -18q9 -6 5 -14l-6 -20q-5 -9 -13 -4q-24 12 -51 12q-20 0 -33.5 -12.5t-13.5 -33.5q0 -26 19 -52h101q9 0 9 -10v-23q0 -11 -9 -11
h-186q-9 0 -9 11v23q0 10 9 10z" />
    <glyph glyph-name="uni0624" unicode="&#x624;" horiz-adv-x="494" 
d="M160 -151q85 43 123.5 81t50.5 98q-46 -28 -101 -28q-80 0 -128.5 55t-48.5 151q0 91 49.5 145.5t134.5 54.5q83 0 131.5 -48t48.5 -142v-94q0 -133 -45.5 -204.5t-184.5 -134.5q-16 -7 -24 8l-18 34q-8 14 12 24zM343 216q0 109 -100 109q-52 0 -80 -32t-28 -86
q0 -126 110 -126q53 0 98 32v103zM148 567h37q-19 28 -19 61q0 37 26 59t64 22q39 0 70 -18q9 -6 5 -14l-6 -20q-5 -9 -13 -4q-24 12 -51 12q-20 0 -33.5 -12.5t-13.5 -33.5q0 -26 19 -52h101q9 0 9 -10v-23q0 -11 -9 -11h-186q-9 0 -9 11v23q0 10 9 10z" />
    <glyph glyph-name="uni0625" unicode="&#x625;" horiz-adv-x="225" 
d="M74 21v662q0 18 14 21l44 7q19 3 19 -17v-673q0 -21 -19 -21h-39q-19 0 -19 21zM15 -252h37q-19 29 -19 61q0 37 26 59t64 22q39 0 70 -18q9 -6 5 -14l-6 -20q-5 -9 -13 -4q-24 12 -51 12q-20 0 -33.5 -12.5t-13.5 -33.5q0 -26 19 -52h101q9 0 9 -10v-23q0 -11 -9 -11
h-186q-9 0 -9 11v23q0 10 9 10z" />
    <glyph glyph-name="uni0626" unicode="&#x626;" horiz-adv-x="832" 
d="M389 -139q105 0 185.5 30t80.5 79q0 27 -27 49.5t-65 41t-76 40.5t-65 59.5t-27 86.5q0 91 59 139t146 48q89 0 166 -50q14 -9 8 -20l-18 -40q-7 -16 -23 -7q-67 37 -134 37q-56 0 -90.5 -27t-34.5 -80q0 -35 27 -61.5t65 -45.5t76 -39t65 -52.5t27 -75.5q0 -85 -95 -139
t-249 -54q-55 0 -103 7.5t-92.5 26t-76 46.5t-50 72t-18.5 100q0 88 45 177q11 21 28 13l32 -15q18 -9 9 -26q-35 -70 -35 -142q0 -178 260 -178zM33 389h37q-19 28 -19 61q0 37 26 59t64 22q39 0 70 -18q9 -6 5 -14l-6 -20q-5 -9 -13 -4q-24 12 -51 12q-20 0 -33.5 -12.5
t-13.5 -33.5q0 -26 19 -52h101q9 0 9 -10v-23q0 -11 -9 -11h-186q-9 0 -9 11v23q0 10 9 10z" />
    <glyph glyph-name="uni0627" unicode="&#x627;" horiz-adv-x="225" 
d="M74 21v662q0 18 14 21l44 7q19 3 19 -17v-673q0 -21 -19 -21h-39q-19 0 -19 21z" />
    <glyph glyph-name="uni0628" unicode="&#x628;" horiz-adv-x="896" 
d="M305 81h373q41 0 54 14.5t13 57.5v233q0 20 19 20h38q20 0 20 -20v-271q0 -115 -132 -115h-408q-113 0 -172.5 54.5t-59.5 152.5v115q0 20 20 20h38q19 0 19 -20v-65q0 -98 38 -137t140 -39zM445 -212q-21 0 -35 12.5t-14 33.5q0 20 14 33t35 13t35 -13t14 -33
q0 -21 -14 -33.5t-35 -12.5z" />
    <glyph glyph-name="uni0629" unicode="&#x629;" horiz-adv-x="496" 
d="M248 -6q-88 0 -140 53.5t-52 148.5q0 91 51 159.5t141 68.5t141 -68.5t51 -159.5q0 -95 -52 -148.5t-140 -53.5zM248 75q56 0 84.5 34t28.5 86q0 57 -29 102.5t-84 45.5t-84 -45.5t-29 -102.5q0 -52 28.5 -86t84.5 -34zM313 534q-21 0 -35 12.5t-14 33.5q0 20 14 33
t35 13t35 -13t14 -33q0 -21 -14 -33.5t-35 -12.5zM183 534q-21 0 -35 12.5t-14 33.5q0 20 14 33t35 13t35 -13t14 -33q0 -21 -14 -33.5t-35 -12.5z" />
    <glyph glyph-name="uni062A" unicode="&#x62a;" horiz-adv-x="896" 
d="M305 81h373q41 0 54 14.5t13 57.5v233q0 20 19 20h38q20 0 20 -20v-271q0 -115 -132 -115h-408q-113 0 -172.5 54.5t-59.5 152.5v115q0 20 20 20h38q19 0 19 -20v-65q0 -98 38 -137t140 -39zM509 467q-21 0 -35 12.5t-14 33.5q0 20 14 33t35 13t35 -13t14 -33
q0 -21 -14 -33.5t-35 -12.5zM379 467q-21 0 -35 12.5t-14 33.5q0 20 14 33t35 13t35 -13t14 -33q0 -21 -14 -33.5t-35 -12.5z" />
    <glyph glyph-name="uni062B" unicode="&#x62b;" horiz-adv-x="896" 
d="M305 81h373q41 0 54 14.5t13 57.5v233q0 20 19 20h38q20 0 20 -20v-271q0 -115 -132 -115h-408q-113 0 -172.5 54.5t-59.5 152.5v115q0 20 20 20h38q19 0 19 -20v-65q0 -98 38 -137t140 -39zM505 467q-21 0 -35 12.5t-14 33.5q0 20 14 33t35 13t35 -13t14 -33
q0 -21 -14 -33.5t-35 -12.5zM375 467q-21 0 -35 12.5t-14 33.5q0 20 14 33t35 13t35 -13t14 -33q0 -21 -14 -33.5t-35 -12.5zM440 581q-21 0 -35 12.5t-14 33.5q0 20 14 33t35 13t35 -13t14 -33q0 -21 -14 -33.5t-35 -12.5z" />
    <glyph glyph-name="uni062C" unicode="&#x62c;" horiz-adv-x="568" 
d="M243 344q-53 0 -116 -35q-15 -9 -22 7l-18 40q-5 11 8 20q69 48 154 48q92 0 141 -53.5t69 -152.5q17 -82 51 -113q18 -17 18 -34v-51q0 -20 -20 -20h-222q-86 0 -126.5 -22.5t-40.5 -78.5q0 -108 177 -108q75 0 157 24q13 3 17 1t7 -10l14 -37q6 -18 -14 -27
q-71 -32 -186 -32q-119 0 -185 48t-66 141t60.5 137.5t185.5 44.5h151q-22 22 -33.5 48.5t-23.5 79.5q-16 76 -47 105.5t-90 29.5zM302 -153q-21 0 -35 12.5t-14 33.5q0 20 14 33t35 13t35 -13t14 -33q0 -21 -14 -33.5t-35 -12.5z" />
    <glyph glyph-name="uni062D" unicode="&#x62d;" horiz-adv-x="568" 
d="M243 344q-53 0 -116 -35q-15 -9 -22 7l-18 40q-5 11 8 20q69 48 154 48q92 0 141 -53.5t69 -152.5q17 -82 51 -113q18 -17 18 -34v-51q0 -20 -20 -20h-222q-86 0 -126.5 -22.5t-40.5 -78.5q0 -108 177 -108q75 0 157 24q13 3 17 1t7 -10l14 -37q6 -18 -14 -27
q-71 -32 -186 -32q-119 0 -185 48t-66 141t60.5 137.5t185.5 44.5h151q-22 22 -33.5 48.5t-23.5 79.5q-16 76 -47 105.5t-90 29.5z" />
    <glyph glyph-name="uni062E" unicode="&#x62e;" horiz-adv-x="568" 
d="M243 344q-53 0 -116 -35q-15 -9 -22 7l-18 40q-5 11 8 20q69 48 154 48q92 0 141 -53.5t69 -152.5q17 -82 51 -113q18 -17 18 -34v-51q0 -20 -20 -20h-222q-86 0 -126.5 -22.5t-40.5 -78.5q0 -108 177 -108q75 0 157 24q13 3 17 1t7 -10l14 -37q6 -18 -14 -27
q-71 -32 -186 -32q-119 0 -185 48t-66 141t60.5 137.5t185.5 44.5h151q-22 22 -33.5 48.5t-23.5 79.5q-16 76 -47 105.5t-90 29.5zM246 534q-21 0 -35 12.5t-14 33.5q0 20 14 33t35 13t35 -13t14 -33q0 -21 -14 -33.5t-35 -12.5z" />
    <glyph glyph-name="uni062F" unicode="&#x62f;" horiz-adv-x="537" 
d="M339 0h-279q-20 0 -20 20v42q0 19 20 19h263q44 0 57.5 14.5t13.5 57.5v46q0 79 -35.5 111.5t-125.5 32.5q-40 0 -94 -6q-8 -1 -14 -1q-20 0 -20 17v37q0 14 15 19q52 15 117 15q117 0 175.5 -49t58.5 -167v-93q0 -115 -132 -115z" />
    <glyph glyph-name="uni0630" unicode="&#x630;" horiz-adv-x="537" 
d="M339 0h-279q-20 0 -20 20v42q0 19 20 19h263q44 0 57.5 14.5t13.5 57.5v46q0 79 -35.5 111.5t-125.5 32.5q-40 0 -94 -6q-8 -1 -14 -1q-20 0 -20 17v37q0 14 15 19q52 15 117 15q117 0 175.5 -49t58.5 -167v-93q0 -115 -132 -115zM234 534q-21 0 -35 12.5t-14 33.5
q0 20 14 33t35 13t35 -13t14 -33q0 -21 -14 -33.5t-35 -12.5z" />
    <glyph glyph-name="uni0631" unicode="&#x631;" horiz-adv-x="314" 
d="M163 121v265q0 20 19 20h38q20 0 20 -20v-279q0 -129 -40 -196.5t-149 -127.5q-16 -9 -24 8l-18 34q-7 13 12 24q56 32 84.5 62.5t43 80t14.5 129.5z" />
    <glyph glyph-name="uni0632" unicode="&#x632;" horiz-adv-x="314" 
d="M163 121v265q0 20 19 20h38q20 0 20 -20v-279q0 -129 -40 -196.5t-149 -127.5q-16 -9 -24 8l-18 34q-7 13 12 24q56 32 84.5 62.5t43 80t14.5 129.5zM202 526q-21 0 -35 12.5t-14 33.5q0 20 14 33t35 13t35 -13t14 -33q0 -21 -14 -33.5t-35 -12.5z" />
    <glyph glyph-name="uni0633" unicode="&#x633;" horiz-adv-x="1175" 
d="M1105 386v-249q0 -57 -37.5 -97t-109.5 -40q-86 0 -133 64q-36 -64 -125 -64q-70 0 -115 43v-6q0 -128 -69.5 -192.5t-199.5 -64.5q-128 0 -197 65t-69 186q0 85 36 157q10 20 26 13l35 -14q17 -7 9 -26q-27 -64 -27 -131q0 -81 47 -125t141 -44q97 0 144 44.5t47 137.5
v253q0 20 19 20h38q20 0 20 -20v-175q43 -40 99 -40q82 0 82 86v129q0 20 19 20h38q20 0 20 -20v-159q0 -11 -1 -16q44 -40 100 -40q86 0 86 86v219q0 20 19 20h38q20 0 20 -20z" />
    </font>
</defs>
</svg>
